<?xml version="1.0" encoding="utf-8"?>
<!-- Generator: Adobe Illustrator 27.5.0, SVG Export Plug-In . SVG Version: 6.00 Build 0)  -->
<svg version="1.1" xmlns="http://www.w3.org/2000/svg" xmlns:xlink="http://www.w3.org/1999/xlink" x="0px" y="0px"
	 viewBox="0 0 1200 1200" style="enable-background:new 0 0 1200 1200;" xml:space="preserve">
<g id="Background">
	<rect id="Background_1_" style="fill:#FFFBF0;" width="1200" height="1200"/>
</g>
<g id="Graphic_elements">
	<g>
		<g>
			<path style="fill:#FFE8CA;" d="M1086.119,924.84H136.14c-3.707,0-6.712-3.005-6.712-6.712V249.614
				c0-3.707,3.005-6.712,6.712-6.712h949.979c3.707,0,6.712,3.005,6.712,6.712v668.514
				C1092.832,921.835,1089.827,924.84,1086.119,924.84z"/>
			<rect x="220.067" y="692.755" style="fill:#FFD255;" width="774.647" height="232.034"/>
			<rect x="231.256" y="364.939" style="fill:#FFD255;" width="317.202" height="290.692"/>
			<path style="fill:#FFAED7;" d="M1093.644,273.778v-23.273c0-4.648-3.768-8.417-8.417-8.417H137.845
				c-4.629,0-8.417,3.788-8.417,8.417v23.273H1093.644z"/>
			<circle style="fill:#4E9ECE;" cx="409.64" cy="510.285" r="110.609"/>
			<path style="fill:#FFD255;" d="M915.983,345.582H235.759c-9.581,0-17.377-7.795-17.377-17.377
				c0-9.581,7.795-17.377,17.377-17.377h680.224c9.582,0,17.377,7.795,17.377,17.377
				C933.36,337.787,925.565,345.582,915.983,345.582z M235.759,314.502c-7.556,0-13.703,6.147-13.703,13.703
				c0,7.556,6.147,13.704,13.703,13.704h680.224c7.556,0,13.704-6.147,13.704-13.704c0-7.556-6.148-13.703-13.704-13.703H235.759z"
				/>
			<path style="fill:#FFD255;" d="M981.946,348.408l-15.191-17.802c4.873-5.876,4.984-14.592-0.136-20.593
				c-5.731-6.713-15.853-7.514-22.565-1.785c-6.714,5.729-7.515,15.852-1.786,22.565c2.776,3.252,6.651,5.228,10.913,5.566
				c0.431,0.034,0.861,0.051,1.289,0.051c2.862,0,5.632-0.759,8.074-2.199l15.186,17.795L981.946,348.408z M945.062,328.408
				c-4.414-5.173-3.797-12.972,1.375-17.386c2.318-1.978,5.164-2.946,7.997-2.946c3.487,0,6.954,1.467,9.39,4.321
				c4.414,5.173,3.796,12.972-1.376,17.386C957.275,334.198,949.477,333.582,945.062,328.408z"/>
			<path style="fill:#FFD255;" d="M824.321,374.021H567.282c-1.014,0-1.837-0.822-1.837-1.837c0-1.014,0.822-1.837,1.837-1.837
				h257.038c1.014,0,1.837,0.822,1.837,1.837C826.158,373.199,825.335,374.021,824.321,374.021z"/>
			<path style="fill:#FFD255;" d="M824.321,394.199H567.282c-1.014,0-1.837-0.822-1.837-1.837c0-1.014,0.822-1.837,1.837-1.837
				h257.038c1.014,0,1.837,0.822,1.837,1.837C826.158,393.377,825.335,394.199,824.321,394.199z"/>
			<path style="fill:#FFD255;" d="M824.321,414.378H567.282c-1.014,0-1.837-0.822-1.837-1.837c0-1.014,0.822-1.837,1.837-1.837
				h257.038c1.014,0,1.837,0.822,1.837,1.837C826.158,413.555,825.335,414.378,824.321,414.378z"/>
			<path style="fill:#FFD255;" d="M824.321,434.556H567.282c-1.014,0-1.837-0.822-1.837-1.837c0-1.014,0.822-1.837,1.837-1.837
				h257.038c1.014,0,1.837,0.822,1.837,1.837C826.158,433.734,825.335,434.556,824.321,434.556z"/>
			<path style="fill:#FFD255;" d="M824.321,454.734H567.282c-1.014,0-1.837-0.822-1.837-1.837c0-1.014,0.822-1.837,1.837-1.837
				h257.038c1.014,0,1.837,0.822,1.837,1.837C826.158,453.912,825.335,454.734,824.321,454.734z"/>
			<path style="fill:#FFD255;" d="M824.321,474.913H567.282c-1.014,0-1.837-0.822-1.837-1.837c0-1.014,0.822-1.837,1.837-1.837
				h257.038c1.014,0,1.837,0.822,1.837,1.837C826.158,474.091,825.335,474.913,824.321,474.913z"/>
			<rect x="567.283" y="489.316" style="fill:#357184;" width="257.022" height="166.315"/>
			<rect x="835.339" y="372.185" style="fill:#FFAED7;" width="159.936" height="283.447"/>
			
				<ellipse transform="matrix(0.2952 -0.9554 0.9554 0.2952 -62.2618 1064.4165)" style="fill:#FCEDD6;" cx="690.311" cy="574.408" rx="71.218" ry="71.218"/>
			<circle style="fill:#FF7F6E;" cx="159.811" cy="259.51" r="7.313"/>
			<circle style="fill:#FF7F6E;" cx="181.895" cy="259.51" r="7.313"/>
			<circle style="fill:#FF7F6E;" cx="203.979" cy="259.51" r="7.313"/>
			<path style="fill:#FF7F6E;" d="M253.647,925.938c0,0,154.313-230.353,200.563-201.858
				c46.251,28.495,106.202,176.476,158.498,152.045c52.296-24.43,100.745-149.248,159.249-120.797
				c58.504,28.451,174.395,171.417,174.395,171.417L253.647,925.938z"/>
		</g>
		<g>
			<path style="fill:#FFFFFF;" d="M278.688,811.932H40.933c-3.197,0-5.788-2.591-5.788-5.788V393.856
				c0-3.197,2.591-5.788,5.788-5.788h237.755c3.197,0,5.788,2.591,5.788,5.788v412.287
				C284.477,809.34,281.885,811.932,278.688,811.932z"/>
			<rect x="62.274" y="425.14" style="fill:#FFD255;" width="195.073" height="282.305"/>
			<path style="fill:#FF7F6E;" d="M134.434,540.581v51.421c0,3.507,3.845,5.656,6.832,3.818l41.787-25.711
				c2.845-1.75,2.845-5.886,0-7.636l-41.787-25.711C138.28,534.925,134.434,537.074,134.434,540.581z"/>
			<path style="fill:#FFAED7;" d="M284.477,402.937v-10.581c0-2.368-1.919-4.287-4.287-4.287H39.432
				c-2.368,0-4.287,1.919-4.287,4.287v10.581H284.477z"/>
			<path style="fill:#FF7F6E;" d="M56.812,395.44c0,2.257-1.83,4.087-4.087,4.087s-4.087-1.83-4.087-4.087
				c0-2.257,1.83-4.087,4.087-4.087S56.812,393.182,56.812,395.44z"/>
			<path style="fill:#FF7F6E;" d="M69.155,395.44c0,2.257-1.83,4.087-4.087,4.087c-2.257,0-4.087-1.83-4.087-4.087
				c0-2.257,1.83-4.087,4.087-4.087C67.325,391.352,69.155,393.182,69.155,395.44z"/>
			<path style="fill:#FF7F6E;" d="M81.498,395.44c0,2.257-1.83,4.087-4.087,4.087s-4.087-1.83-4.087-4.087
				c0-2.257,1.83-4.087,4.087-4.087S81.498,393.182,81.498,395.44z"/>
		</g>
		<g>
			<path style="fill:#599ECD;" d="M261.371,856.221c-4.36-3.814-1.649-8.052,0.042-11.481c5.366-10.88,9.812-22.143,14.672-33.232
				c7.438-16.973,15.591-33.624,24.963-49.582c6.856-11.672,14.976-22.602,22.552-33.85c0.415-0.616,0.718-1.382,1.521-1.661
				c-0.43,4.403-0.791,8.813-1.322,13.203c-0.219,1.807,0.263,3.098,1.693,4.198c3.859,2.968,8.195,4.82,12.948,5.753
				c13.141,2.58,26.433,2.885,39.75,2.426c3.217-0.111,6.414-0.977,9.317-2.513c1.867-0.988,3.766-2.44,3.453-4.663
				c-0.622-4.419-0.264-8.845-0.616-13.262c-0.745-9.349-1.147-18.726-1.69-28.091c1.167-1.451,2.566-2.772,3.462-4.375
				c5.576-9.983,11.947-19.472,17.886-29.224c7.229-11.872,15.289-23.216,22.133-35.326c4.279-7.572,8.414-15.231,13.185-22.518
				c0.623-0.951,1.242-1.821,2.21-2.417c0.665,0.128,1.329,0.264,1.996,0.384c5.035,0.902,9.809,2.69,14.635,4.303
				c0.063,0.057,0.119,0.129,0.191,0.17c5.222,2.948,5.073,2.903,3.288,8.808c-3.033,10.032-5.746,20.161-8.808,30.185
				c-2.365,7.743-5.257,15.326-7.562,23.085c-3.918,13.191-9.176,25.867-14.25,38.623c-3.344,8.407-6.825,16.742-10.984,24.783
				c-0.986,1.907-0.4,4.041-0.732,6.052c-1.994,12.053-1.072,24.148-0.54,36.247c0.69,15.711,4.37,31.03,5.917,46.628
				c0.68,6.857,1.574,13.703,2.689,20.502c0.396,2.411,0.878,4.843,1.39,7.25c1.072,5.038-1.094,8.041-6.196,8.832
				c-3.154,0.489-6.303-0.383-9.438,0.153c-10.03-0.632-20.082-0.186-30.127-0.669c-10.459-0.504-20.952-0.259-31.428-0.465
				c-8.501-0.167-17.037,0.115-25.457-1.497c-2.179-0.735-4.402-1.362-6.526-2.232c-3.101-1.271-4.6-3.657-5.138-7.03
				c-1.406-8.808,0.164-17.487,0.771-26.208c0.699-10.033,2.187-19.956,4.284-29.791c0.118-0.553,0.015-1.154,0.015-1.729
				c-0.616-0.047-0.782,0.378-0.965,0.746c-7.418,14.903-16.472,28.862-24.97,43.139c-4.527,7.604-8.805,15.396-14.738,22.083
				c-0.87,0.98-2.007,1.549-2.887,2.461c-2.846,1.055-5.663,0.483-8.102-0.884C269.656,861.178,265.302,859.051,261.371,856.221z
				 M327.662,769.595c-2.717-3.722-4.963-6.794-7.204-9.87c-0.619-0.849-1.406-1.373-2.389-0.739
				c-1.014,0.654-0.762,1.595-0.233,2.474c0.22,0.365,0.475,0.709,0.722,1.056c2.523,3.543,5,7.122,7.603,10.606
				c0.792,1.061,1.085,2.078,0.799,3.313c-0.587,2.532-0.28,5.1-0.304,7.653c-0.011,1.212,0.096,2.703,1.66,2.686
				c1.513-0.017,1.297-1.511,1.355-2.591c0.528-9.877,1.721-19.681,3.242-29.447c0.169-1.083,0.436-2.147-0.867-2.545
				c-1.304-0.399-1.836,0.629-2.166,1.636c-0.746,2.281-0.995,4.656-1.239,7.032C328.367,763.522,328.047,766.18,327.662,769.595z
				 M377.827,841.187c0.63,0.006,1.513-0.326,2.691-1.355c8.217-7.178,16.348-14.445,22.91-23.257
				c1.781-2.391,3.633-4.729,5.428-7.109c0.446-0.591,1.213-1.363,0.479-2.002c-0.891-0.774-1.467,0.315-2.068,0.822
				c-0.321,0.271-0.542,0.655-0.832,0.966c-3.83,4.118-7.448,8.43-11.54,12.307c-5.873,5.564-11.393,11.511-17.876,16.411
				c-0.73,0.552-1.181,1.283-0.825,2.212C376.461,840.877,377.071,841.196,377.827,841.187z M346.685,790.483
				c-0.684-0.042-1.107,0.065-1.353,0.454c-0.436,0.689-0.152,1.334,0.29,1.881c1.238,1.533,2.704,2.82,4.274,4.016
				c6.929,5.279,15.26,6.981,23.373,9.251c0.996,0.279,2.189,0.733,2.674-0.528c0.51-1.325-0.659-2.049-1.66-2.479
				c-1.481-0.636-3.033-1.145-4.597-1.547c-8.063-2.07-15.923-4.537-22.105-10.549C347.295,790.705,346.862,790.578,346.685,790.483
				z M411.374,723.495c0.84,8.065,3.843,14.939,9.586,20.518c0.181,0.176,0.398,0.321,0.614,0.454
				c0.855,0.523,1.772,0.834,2.541-0.038c0.679-0.77,0.342-1.597-0.214-2.32c-0.415-0.539-0.833-1.081-1.302-1.573
				c-3.679-3.864-5.963-8.438-7.103-13.633c-0.289-1.321-0.774-2.609-1.281-3.868c-0.316-0.784-0.824-1.633-1.884-1.289
				C411.477,722.024,411.452,722.907,411.374,723.495z M428.571,723.504c-0.013,0-0.027,0-0.04,0c0-1.792,0.022-3.584-0.009-5.375
				c-0.017-0.954-0.114-2.127-1.218-2.263c-1.293-0.159-1.556,1.056-1.801,2.072c-0.872,3.621-0.394,7.306-0.514,10.962
				c-0.039,1.18,0.232,2.441,1.601,2.497c1.509,0.061,1.895-1.287,1.958-2.519C428.639,727.091,428.571,725.296,428.571,723.504z"/>
			<path style="fill:#F2D256;" d="M332.115,862.979c8.419,1.612,16.955,1.33,25.457,1.497c10.476,0.206,20.969-0.039,31.428,0.465
				c10.045,0.484,20.097,0.037,30.127,0.669c-0.341,12.363-1.054,24.7-2.186,37.021c-0.53,5.77-0.616,11.595-0.644,17.396
				c-0.069,14.521-0.195,29.047,0.086,43.564c0.316,16.377,0.406,32.781,1.209,49.12c0.613,12.467,0.782,24.914,0.542,37.346
				c-0.215,11.153-1.546,22.288-1.341,33.475c0.32,2.458-0.851,4.829-0.324,7.335c0.525,2.495-0.163,3.06-2.754,3.144
				c-8.586,0.279-17.145-0.919-25.732-0.421c-1.793-0.031-3.587-0.041-5.379-0.1c-1.636-0.054-2.517-0.959-2.604-2.569
				c-0.641-11.934-0.471-23.866-0.34-35.816c0.157-14.305,1.233-28.656-1.046-42.937c-0.803-5.032-0.869-10.187-1.186-15.291
				c-0.64-10.295-2.172-20.506-2.925-30.783c-0.729-9.946-1.551-19.9-1.372-29.894c0.022-1.262,0.092-2.558-0.847-4.155
				c-1.075,7.349-1.908,14.325-3.147,21.228c-2.332,12.994-3.484,26.189-6.665,39.035c-1.583,6.396-1.983,12.938-2.629,19.467
				c-1.15,11.611-2.076,23.245-3.703,34.813c-1.423,10.119-2.888,20.245-3.418,30.47c-0.106,2.04-0.309,4.075-0.468,6.112
				c-0.285,2.181-0.489,4.363-0.629,6.564c-0.249,3.897-2.563,5.81-6.48,5.846c-8.393,0.078-16.775-0.08-25.127-1.006
				c-9.088-1.255-9.162-1.599-9.479-10.623c-0.393-11.189-0.107-22.356,0.712-33.495c0.73-9.936,2.163-19.813,3.375-29.707
				c1.465-11.961,3.984-23.696,6.332-35.468c1.802-9.033,3.803-17.996,4.292-27.239c0.284-5.381,0.3-10.762,0.132-16.127
				c-0.258-8.243,0.934-16.329,1.87-24.464c0.632-5.495,1.399-10.983,1.363-16.556c-0.059-9.141,1.446-18.172,2.308-27.247
				C331.261,870.085,331.714,866.535,332.115,862.979z M369.04,902.881c-1.621-0.078-2.858-0.987-4.115-1.873
				c-2.784-1.964-5.493-4.055-8.579-5.54c-1.034-0.498-2.331-0.761-2.877,0.569c-0.507,1.234,0.621,1.848,1.59,2.201
				c1.71,0.624,3.141,1.694,4.636,2.666c3.062,1.992,5.856,4.403,9.32,5.77c1.091,0.43,1.627,1.412,1.598,2.682
				c-0.046,1.962-0.021,3.926,0.02,5.888c0.018,0.895-0.21,2.169,1.125,2.159c1.101-0.009,1.367-1.113,1.422-2.103
				c0.363-6.463-0.222-12.742-3.053-18.717c-2.55-5.383-5.281-10.702-6.73-16.551c-0.325-1.31-0.225-2.737-0.995-3.939
				c-0.523-0.816-1.226-1.246-2.154-0.827c-0.878,0.396-0.752,1.107-0.547,1.95c1.72,7.073,4.36,13.779,7.736,20.221
				c0.862,1.646,1.571,3.406,1.738,5.31L369.04,902.881z M412.622,993.078c0.016-1.342-0.346-2.117-1.271-2.381
				c-0.713-0.204-0.973,0.419-1.244,0.992c-3.567,7.54-7.746,14.744-12.099,21.849c-0.609,0.993-1.324,2.086-0.076,2.849
				c1.15,0.703,2.06-0.15,2.65-1.239c0.283-0.522,0.663-0.99,0.952-1.509c2.605-4.681,5.226-9.354,7.785-14.06
				C410.536,997.343,411.63,995.04,412.622,993.078z M328.704,1059.515c0.361-0.157,0.958-0.314,1.44-0.64
				c5.642-3.814,8.647-9.715,12.042-15.302c0.353-0.581,0.154-1.19-0.387-1.584c-0.524-0.381-1.183-0.423-1.676-0.028
				c-0.517,0.413-0.947,0.964-1.324,1.517c-2.01,2.947-3.567,6.179-5.926,8.918c-1.516,1.76-3.219,3.26-4.993,4.719
				c-0.526,0.432-1.044,0.96-0.663,1.746C327.463,1059.368,327.938,1059.553,328.704,1059.515z M325.085,1033.498
				c-0.272-2.058-1.216-4.04-2.369-5.923c-0.444-0.725-1.216-0.925-2.008-0.541c-0.512,0.248-0.684,0.727-0.481,1.285
				c0.754,2.067,1.497,4.138,2.282,6.192c0.266,0.696,0.826,1.092,1.603,0.96C325.172,1035.293,325.017,1034.421,325.085,1033.498z
				 M329.311,978.757c1.214-0.062,1.825-0.013,2.399-0.139c1.165-0.255,2.244-0.877,1.961-2.205
				c-0.282-1.324-1.469-0.855-2.322-0.578c-1.437,0.467-2.706,0.076-3.875-0.67c-0.799-0.51-1.427-0.519-1.973,0.245
				c-0.665,0.931-0.111,1.651,0.595,2.167C327.219,978.397,328.497,978.855,329.311,978.757z M400.898,997.098
				c-0.809-1.723-1.668-3.835-3.616-5.238c-0.493-0.355-0.966-0.162-1.366,0.224c-0.482,0.465-0.625,1.007-0.266,1.603
				c0.96,1.595,1.917,3.192,2.914,4.763c0.346,0.545,0.904,0.791,1.543,0.519C400.732,998.704,400.918,998.149,400.898,997.098z
				 M324.366,985.756c-1.294,0.454-1.919,1.445-1.103,2.332c1.415,1.535,3.162,2.864,5.262,3.323
				c1.076,0.235,1.985-0.645,1.31-1.712C328.571,987.701,326.163,987.134,324.366,985.756z"/>
			<path style="fill:#010101;" d="M388.656,703.467c0.543,9.365,0.945,18.742,1.69,28.091c0.352,4.417-0.006,8.843,0.616,13.262
				c0.313,2.223-1.586,3.675-3.453,4.663c-2.903,1.536-6.1,2.402-9.317,2.513c-13.318,0.459-26.609,0.154-39.75-2.426
				c-4.753-0.933-9.089-2.785-12.948-5.753c-1.43-1.1-1.912-2.391-1.693-4.198c0.531-4.39,0.892-8.799,1.322-13.203
				c2.505-9.645,4.923-19.312,7.533-28.927c4.509-16.613,9.216-33.182,16.588-48.805c2.445-5.183,5.914-9.77,11.112-12.718
				c9.42-5.342,19.013-4.981,28.742-0.98c4.99,2.052,9.787,4.37,13.469,8.526c2.714,3.064,2.28,6.007-1.394,7.833
				c-1.446,0.719-2.979,1.261-4.471,1.883c-2.047,0.812-4.095,1.623-6.142,2.437c-1.579,0.628-3.547,0.879-4.631,1.991
				c-1.232,1.263,0.027,3.247,0.121,4.907c0.636,11.233,1.422,22.457,2.159,33.684C388.357,698.654,388.507,701.061,388.656,703.467
				z"/>
			<path style="fill:#E9AA75;" d="M463.116,591.204c1.521-2.739,3.715-11.707,3.715-11.707c0.254-0.99,0.549-1.854,0.908-2.516
				c0.469-0.868,1.035-1.646,2.152-1.424c1.185,0.235,1.649,1.173,1.679,2.27c0.074,2.748-0.87,5.351-1.253,8.036
				c-0.164,1.155-1.1,5.758-1.429,7.27c2.035-1.594,4.356-6.42,6.086-7.745c1.153-0.882,2.497-1.441,3.726-0.393
				c1.273,1.086,0.382,2.347-0.2,3.466c-0.431,0.828-9.174,15.589-12.502,22.478c-0.554,1.146-1.22,2.237-1.835,3.353
				c-4.826-1.613-9.6-3.402-14.635-4.303c-0.667-0.119-1.331-0.255-1.996-0.384c0.826-3.008,0.052-5.412-2.437-7.406
				c-1.049-0.84-3.58-5.131-0.827-7.154c1.296-0.952,2.576-0.542,3.899,0.576c0.3,0.253,0.913,0.802,1.752,1.32
				c0-4.589,0.157-9.136,0.155-13.272c-0.001-1.622-0.092-3.249,0.006-4.865c0.099-1.632,0.24-3.406,2.469-3.54
				c2.333-0.14,2.879,1.634,3.034,3.365c0.342,3.816,0.68,8.654,0.913,12.726c1.208-0.8,3.413-12.706,4.65-17.047
				c0.418-1.468,0.87-3.645,3.032-3.016c2.115,0.616,2.032,2.779,1.653,4.553c-0.216,1.013-0.295,2.001-0.625,3.118
				C465.205,578.964,462.966,588.028,463.116,591.204z"/>
			<path style="fill:#E9AA75;" d="M261.371,856.221c3.931,2.831,8.285,4.957,12.49,7.313c2.438,1.366,5.256,1.939,8.102,0.884
				c0.958,0.554,1.911,1.119,2.877,1.658c1.505,0.841,2.238,2.032,1.839,3.801c-0.397,1.759-1.621,2.268-3.241,2.218
				c-1.186-0.037-2.46,0.267-3.516-0.399c-2.037-1.286-2.284,0.159-2.471,1.565c-0.472,3.547-0.805,7.114-2.07,10.507
				c-0.523,1.402-0.975,2.848-2.895,2.646c-1.951-0.205-2.054-1.852-2.26-3.24c-0.334-2.25-0.484-4.527-0.766-7.322
				c-0.765,1.932-1.31,3.105-1.775,4.483c-0.633,1.874-1.079,3.779-2.145,5.451c-0.741,1.162-1.79,1.91-3.229,1.46
				c-1.457-0.455-1.866-1.679-1.759-3.06c0.131-1.688,1.743-6.982,1.973-9.018c-1.239,1.579-3.433,6.185-4.386,7.276
				c-1.147,1.313-2.345,2.445-4.139,1.629c-1.81-0.824-1.45-2.622-1.125-4.068c0.52-2.315,2.439-7.085,2.148-7.267
				c-0.077-0.048-0.228,0.132-0.331,0.218c-1.29,0.846-2.579,1.609-3.957,2.246c-1.448,0.669-3.14,1.076-4.233-0.275
				c-1.076-1.331-0.499-2.879,0.599-4.164C251.522,865.585,256.529,860.983,261.371,856.221z"/>
			<path style="fill:#E38170;" d="M387.983,1093.589c8.587-0.498,17.146,0.701,25.732,0.421c2.591-0.084,3.279-0.649,2.754-3.144
				c-0.528-2.505,0.643-4.877,0.324-7.335c3.672-1.146,7.37-1.973,11.281-1.771c5.462,0.282,8.021,3.29,5.59,8.341
				c-1.646,3.42-3.798,5.949-7.266,7.448c-1.398,0.604-2.74,1.385-4.011,2.231c-8.798,5.858-18.544,6.163-28.518,4.775
				c-3.353-0.467-5.676-3.664-5.761-7.137C388.077,1096.142,388.025,1094.866,387.983,1093.589z"/>
			<path style="fill:#E38270;" d="M320.018,1094.573c8.352,0.926,16.734,1.083,25.127,1.006c3.916-0.036,6.231-1.95,6.48-5.846
				c0.141-2.2,0.344-4.383,0.629-6.564c3.24-2.288,6.938-2.052,10.591-1.822c3.332,0.21,4.703,2.087,3.989,5.359
				c-0.835,3.826-3.403,6.517-6.499,8.53c-5.862,3.812-11.908,7.287-19.095,8.103c-4.933,0.56-9.873,0.558-14.776,0.093
				c-4.468-0.424-5.487-1.712-6.103-6.075C320.231,1096.431,320.132,1095.501,320.018,1094.573z"/>
			<path style="fill:#E5A673;" d="M388.208,696.248c-0.737-11.227-1.523-22.451-2.159-33.684c-0.094-1.66-1.353-3.644-0.121-4.907
				c1.084-1.112,3.052-1.363,4.631-1.991c2.047-0.814,4.096-1.625,6.142-2.437c0.007,5.047,1.156,9.628,5.22,13.065
				c1.318,1.114,1.457,2.679-0.051,3.391c-3.981,1.879-4.907,5.276-5.244,9.13c-0.019,0.214-0.273,0.408-0.418,0.61
				c-2.831,0.379-4.337-1.44-5.746-3.441c-0.402-0.571-0.934-1.179-1.678-0.709c-0.799,0.505-0.281,1.193,0.03,1.781
				c1.412,2.661,3.702,4.124,6.57,4.792C394.408,687.353,392.623,692.456,388.208,696.248z M392.214,659.005
				c-1.53,0.239-1.971,1.3-1.887,2.571c0.076,1.156,0.594,2.251,1.955,2.197c1.41-0.056,2.017-1.089,2.005-2.426
				C394.275,659.976,393.566,659.162,392.214,659.005z"/>
			<path style="fill:#241D15;" d="M395.384,681.847c-2.868-0.667-5.159-2.13-6.57-4.792c-0.312-0.588-0.829-1.276-0.03-1.781
				c0.743-0.47,1.276,0.138,1.678,0.709c1.409,2.001,2.915,3.82,5.746,3.441C396.46,680.412,396.346,681.273,395.384,681.847z"/>
			<path style="fill:#F2EFD0;" d="M327.662,769.595c0.385-3.415,0.705-6.073,0.978-8.736c0.244-2.376,0.493-4.751,1.239-7.032
				c0.33-1.008,0.862-2.035,2.166-1.636c1.302,0.398,1.035,1.462,0.867,2.545c-1.521,9.766-2.714,19.571-3.242,29.447
				c-0.058,1.08,0.158,2.574-1.355,2.591c-1.564,0.017-1.671-1.474-1.66-2.686c0.023-2.553-0.284-5.121,0.304-7.653
				c0.287-1.235-0.007-2.253-0.799-3.313c-2.603-3.484-5.079-7.063-7.603-10.606c-0.247-0.347-0.502-0.692-0.722-1.056
				c-0.529-0.879-0.781-1.82,0.233-2.474c0.983-0.634,1.77-0.111,2.389,0.739C322.699,762.801,324.945,765.873,327.662,769.595z"/>
			<path style="fill:#F1EFD0;" d="M377.826,841.189c-0.755,0.007-1.365-0.312-1.631-1.005c-0.357-0.929,0.095-1.66,0.825-2.212
				c6.483-4.9,12.003-10.847,17.876-16.411c4.092-3.877,7.71-8.189,11.54-12.307c0.29-0.311,0.511-0.696,0.832-0.966
				c0.601-0.507,1.177-1.597,2.068-0.822c0.734,0.638-0.033,1.411-0.479,2.002c-1.796,2.38-3.647,4.718-5.428,7.109
				c-6.563,8.812-14.693,16.079-22.91,23.257C379.34,840.861,378.457,841.193,377.826,841.189z"/>
			<path style="fill:#F1EFD0;" d="M346.685,790.483c0.177,0.096,0.61,0.222,0.896,0.5c6.182,6.012,14.042,8.479,22.105,10.549
				c1.564,0.401,3.116,0.91,4.597,1.547c1.001,0.43,2.17,1.154,1.66,2.479c-0.486,1.26-1.679,0.806-2.674,0.528
				c-8.112-2.27-16.444-3.973-23.373-9.251c-1.57-1.196-3.036-2.482-4.274-4.016c-0.442-0.547-0.726-1.191-0.29-1.881
				C345.577,790.548,346,790.44,346.685,790.483z"/>
			<path style="fill:#F3F0D0;" d="M411.374,723.495c0.078-0.588,0.103-1.471,0.958-1.749c1.06-0.344,1.568,0.505,1.884,1.289
				c0.507,1.258,0.992,2.547,1.281,3.868c1.139,5.195,3.424,9.769,7.103,13.633c0.468,0.492,0.887,1.034,1.302,1.573
				c0.556,0.723,0.894,1.549,0.214,2.32c-0.769,0.872-1.686,0.561-2.541,0.038c-0.217-0.133-0.433-0.278-0.614-0.454
				C415.217,738.434,412.215,731.56,411.374,723.495z"/>
			<path style="fill:#F2EFD0;" d="M428.571,723.504c0,1.792,0.068,3.587-0.023,5.374c-0.063,1.232-0.449,2.58-1.958,2.519
				c-1.369-0.056-1.64-1.317-1.601-2.497c0.12-3.656-0.358-7.341,0.514-10.962c0.245-1.016,0.508-2.231,1.801-2.072
				c1.104,0.135,1.201,1.309,1.218,2.263c0.031,1.791,0.009,3.583,0.009,5.375C428.544,723.504,428.558,723.504,428.571,723.504z"/>
			<path style="fill:#FAF1C9;" d="M369.173,902.747c-0.167-1.904-0.876-3.665-1.738-5.31c-3.376-6.442-6.017-13.148-7.736-20.221
				c-0.205-0.844-0.331-1.554,0.547-1.95c0.928-0.419,1.631,0.011,2.154,0.827c0.77,1.202,0.671,2.629,0.995,3.939
				c1.449,5.849,4.18,11.168,6.73,16.551c2.831,5.975,3.416,12.254,3.053,18.717c-0.056,0.991-0.321,2.095-1.422,2.103
				c-1.335,0.01-1.106-1.264-1.125-2.159c-0.04-1.962-0.065-3.927-0.02-5.888c0.03-1.27-0.507-2.251-1.598-2.682
				c-3.464-1.367-6.257-3.778-9.32-5.77c-1.495-0.972-2.926-2.042-4.636-2.666c-0.969-0.354-2.096-0.968-1.59-2.201
				c0.546-1.33,1.843-1.067,2.877-0.569c3.086,1.486,5.795,3.577,8.579,5.54c1.257,0.886,2.494,1.795,4.116,1.872
				c0.1,0.057,0.2,0.115,0.299,0.173C369.284,902.951,369.229,902.849,369.173,902.747z"/>
			<path style="fill:#FAF1C7;" d="M412.622,993.078c-0.992,1.961-2.086,4.264-3.302,6.501c-2.56,4.706-5.18,9.379-7.785,14.06
				c-0.289,0.519-0.669,0.987-0.952,1.509c-0.591,1.089-1.501,1.941-2.65,1.239c-1.248-0.763-0.533-1.856,0.076-2.849
				c4.353-7.105,8.532-14.309,12.099-21.849c0.271-0.573,0.531-1.196,1.244-0.992C412.276,990.961,412.638,991.736,412.622,993.078z
				"/>
			<path style="fill:#FAF1C7;" d="M328.704,1059.515c-0.767,0.038-1.241-0.147-1.488-0.655c-0.381-0.786,0.137-1.314,0.663-1.746
				c1.774-1.459,3.477-2.958,4.993-4.719c2.359-2.739,3.916-5.971,5.926-8.918c0.377-0.553,0.808-1.103,1.324-1.517
				c0.493-0.395,1.152-0.353,1.676,0.028c0.541,0.394,0.74,1.003,0.387,1.584c-3.395,5.587-6.4,11.488-12.042,15.302
				C329.662,1059.201,329.066,1059.358,328.704,1059.515z"/>
			<path style="fill:#FAF1C7;" d="M325.085,1033.498c-0.068,0.923,0.087,1.794-0.973,1.973c-0.778,0.131-1.337-0.264-1.603-0.96
				c-0.786-2.055-1.528-4.125-2.282-6.192c-0.203-0.558-0.031-1.037,0.481-1.285c0.792-0.384,1.564-0.183,2.008,0.541
				C323.868,1029.458,324.812,1031.44,325.085,1033.498z"/>
			<path style="fill:#FAF1C7;" d="M329.311,978.757c-0.814,0.097-2.092-0.36-3.215-1.18c-0.706-0.516-1.26-1.235-0.595-2.167
				c0.545-0.764,1.173-0.755,1.973-0.245c1.17,0.746,2.438,1.137,3.875,0.67c0.853-0.277,2.04-0.746,2.322,0.578
				c0.283,1.328-0.797,1.95-1.961,2.205C331.136,978.744,330.525,978.695,329.311,978.757z"/>
			<path style="fill:#FAF1C7;" d="M400.898,997.098c0.02,1.052-0.167,1.606-0.791,1.872c-0.64,0.272-1.198,0.025-1.543-0.519
				c-0.997-1.571-1.954-3.169-2.914-4.763c-0.359-0.596-0.216-1.138,0.266-1.603c0.4-0.386,0.873-0.579,1.366-0.224
				C399.23,993.263,400.089,995.375,400.898,997.098z"/>
			<path style="fill:#FAF1C7;" d="M324.366,985.756c1.797,1.378,4.205,1.944,5.469,3.942c0.675,1.067-0.235,1.947-1.31,1.712
				c-2.1-0.459-3.847-1.787-5.262-3.323C322.446,987.201,323.072,986.21,324.366,985.756z"/>
			<path style="fill:#18120D;" d="M392.214,659.005c1.353,0.157,2.061,0.972,2.073,2.341c0.012,1.337-0.595,2.37-2.005,2.426
				c-1.361,0.054-1.879-1.041-1.955-2.197C390.243,660.305,390.683,659.244,392.214,659.005z"/>
			<path style="fill:#F2D256;" d="M369.173,902.747c0.056,0.102,0.111,0.204,0.167,0.305c-0.099-0.058-0.199-0.116-0.299-0.173
				C369.04,902.881,369.173,902.747,369.173,902.747z"/>
		</g>
		<g>
			<path style="fill:#EAAFD7;" d="M933.515,1083.108c-0.36-4.167-0.306-8.408-1.076-12.495c-3.547-18.838-5.095-37.918-6.988-56.946
				c-1.627-16.365-4.228-32.6-6.192-48.918c-2.044-16.98-4.362-33.932-6.054-50.956c-1.494-15.024-2.75-30.071-4.229-45.096
				c-1.795-18.238-3.671-36.469-5.594-54.694c-1.089-10.318-2.154-20.644-3.567-30.919c-1.809-13.159-2.915-26.383-4.201-39.592
				l0.002,0l-0.017-0.154c-0.119-1.223-0.237-2.445-0.361-3.667c-0.999-9.918-1.953-19.844-3.194-29.734
				c-0.338-2.695-0.738-5.308-1.13-7.901l-1.631-14.377l0,0l0,0l-17.276-152.322c-0.438-3.779-3.638-6.629-7.442-6.629
				c-4.48,0-7.959,3.906-7.441,8.357l2.174,18.698l-77.445,3.196l-2.229-19.474c-0.433-3.784-3.636-6.641-7.445-6.641
				c-4.477,0-7.955,3.9-7.444,8.347l20.053,174.694c-0.001,0-0.002,0-0.004,0c0.01,0.542-0.047,1.095,0.039,1.624
				c0.243,1.503,0.457,3.01,0.675,4.516l1.751,14.131c1.137,10.784,1.936,21.604,2.989,32.392
				c1.075,11.006,2.723,21.934,3.725,32.944c1.098,12.075,2.572,24.115,3.794,36.179c0.937,9.255,1.442,18.562,2.667,27.776
				c1.652,12.433,2.731,24.912,3.857,37.393c0.606,6.713,1.382,13.411,1.895,20.13c0.78,10.221,2.522,20.317,3.779,30.476
				c1.256,10.158,2.535,20.313,3.837,30.465c1.405,10.958,2.984,21.896,4.234,32.872c1.067,9.375,1.541,18.819,2.697,28.181
				c1.634,13.233,3.672,26.415,5.496,39.625c0.443,3.207,0.859,4.728,5.417,4.582c2.241-0.072,3.5-0.101,5.26-0.11
				c4.962-0.027,5.517-0.369,4.614-5.356c-1.827-10.088-2.464-20.333-4.203-30.417c-2.684-15.563-3.812-31.295-5.345-46.976
				c-0.879-8.997-0.49-9.261,8.811-9.039c10.567,0.252,21.071-0.859,31.617-0.997c3.475-0.045,6.94-0.843,10.411-1.29
				c6.947-0.895,13.906-1.709,20.836-2.715c2.994-0.435,4.245,0.898,4.563,3.612c1.379,11.777,2.968,23.534,4.077,35.336
				c1.413,15.031,3.065,30.019,5.586,44.911c0.576,3.406-0.482,7.927,2.039,9.927c2.57,2.04,10.972,0.694,11.227,0.605
				C932.771,1086.091,933.679,1085.012,933.515,1083.108z M788.97,621.121l77.556-3.2l4.257,36.619l-77.622,3.203L788.97,621.121z
				 M860.574,566.727l4.677,40.228l-77.536,3.199l-4.605-40.231L860.574,566.727z M794.417,668.709l77.641-3.204l5.544,47.689
				c-0.621,0.925-1.842,1.102-3.063,1.105c-10.928,0.028-21.856,0.03-32.784,0.097c-2.429,0.015-28.835,1.52-32.003,1.458
				c-3.314-0.064-6.63-0.071-9.946-0.062L794.417,668.709z M805.888,775.099c-1.076-11.39-2.205-22.775-3.321-34.16
				c-0.151-1.543-0.277-3.091-0.415-4.636h0.002l-0.007-0.06c-0.147-1.633-0.325-3.261-0.559-4.88l-0.242-2.113
				c0.057-0.983,0.834-0.836,2.527-0.962c4.705-0.35,9.388-0.774,14.125-0.795c18.21-0.081,36.234-0.015,54.58-1.651
				c5.708-0.068,6.297-0.051,6.794,4.575c1.425,13.247,2.311,22.414,3.667,35.668c0.041,0.402,0.005,0.811,0.005,1.262
				c0.339,2.379-0.397,3.583-3.152,3.924c-11.476,1.419-22.889,3.399-34.386,4.586c-8.169,0.844-16.436,0.724-24.657,1.085
				c-3.899,0.171-7.828-0.458-11.702,0.591C807.221,778.054,806.089,777.23,805.888,775.099z M813.059,839.373
				c-1.212-13.821-2.216-27.673-4.605-41.367c-1.026-5.883-0.542-6.455,5.538-6.446c20.004,0.031,39.911-1.117,59.624-4.756
				c1.585-0.292,3.258-0.105,4.844-0.392c6.424-1.163,6.487-0.886,7.128,5.402c1.297,12.73,2.953,25.423,4.468,38.13
				c0.112,0.936,0.272,1.867,0.41,2.8c0.268,2.297-0.415,3.292-3.011,3.625c-15.097,1.937-30.069,4.545-45.381,5.071
				c-8.318,0.286-16.765-0.443-25.044,1.254C814.451,843.223,813.324,842.393,813.059,839.373z M819.572,904.948
				c-1.404-14.885-3.07-29.746-4.659-44.614c-0.177-1.657-0.033-2.963,2.092-3.107c1.471-0.1,2.93-0.613,4.391-0.599
				c13.52,0.129,27.018-0.467,40.46-1.78c8.834-0.863,17.612-2.342,26.391-3.701c2.426-0.375,3.651-0.295,3.926,2.725
				c1.171,12.878,2.611,25.732,3.984,38.592c0.186,1.738,0.548,3.457,0.829,5.186c0.385,2.62-0.646,3.408-3.324,3.734
				c-11.224,1.365-22.375,3.394-33.618,4.541c-8.448,0.861-16.997,0.741-25.5,1.073c-3.77,0.147-7.556-0.317-11.308,0.666
				C821.195,908.197,819.838,907.768,819.572,904.948z M902.935,977.43c-8.664,1.239-17.32,2.591-26.023,3.477
				c-12.495,1.273-25.046,1.711-37.61,1.765c-2.133,0.009-4.265,0.562-6.397,0.864c-3.096,0.475-4.068-0.611-4.465-3.9
				c-2.117-17.508-4.594-34.974-6.989-52.448c-0.577-4.208,0.208-5.404,4.562-5.514c9.184-0.232,18.363-0.332,27.549-0.747
				c11.219-0.507,22.237-2.314,33.326-3.707c1.602-0.201,3.208-0.372,4.814-0.53c7.055-0.693,7.243-0.697,7.56,6.308
				c0.775,17.139,4.221,33.949,6.163,50.943C905.721,976.544,904.77,977.168,902.935,977.43z"/>
			<g>
				<path style="fill:#417283;" d="M807.088,817.301c-0.781-0.16-1.556-0.372-2.344-0.47c-2.834-0.353-5.177-1.149-5.063-4.712
					c0.112-3.516,1.716-5.276,5.356-4.87c0.2,0.022,0.422-0.153,0.634-0.235c4.683,0.324,4.691,0.323,4.291-4.099
					c-0.26-2.875-0.641-5.742-0.81-8.621c-0.929-15.903-2.255-31.801-2.577-47.717c-0.307-15.144-1.4-30.245-1.805-45.381
					c-0.162-6.065,0.183-12.221-1.071-18.245c-0.035-14.6-0.07-29.2-0.105-43.801c3.59-0.039,7.181-0.146,10.77-0.105
					c23.171,0.266,46.333-0.338,69.499-0.625c1.171,7.34,1.531,14.767,1.245,22.147c-0.299,7.706,1.307,15.182,1.783,22.782
					c0.152,2.423,0.371,4.825,0.305,7.263c-0.307,11.343,0.795,22.649,0.969,33.981c-0.077,1.265-0.163,2.53-0.23,3.796
					c-0.504,9.526,1.494,18.889,1.922,28.318c0.703,15.482,1.349,30.951,2.87,46.378c0.498,5.053,0.406,5.063,5.565,4.828
					c1.537,0.446,4.016-0.931,4.506,1.307c0.576,2.627,0.514,5.507-0.3,8.151c-0.336,1.092-1.863,0.483-2.811,0.785
					c-3.717-0.526-7.39,0.019-11.068,0.46c-7.665-1.188-15.329-0.355-22.993,0.007c-1.248-0.21-2.488-0.491-3.744-0.617
					c-2.963-0.299-4.42-1.873-4.021-4.842c0.353-2.623-0.026-5.957,4.247-5.661c1.913,0.132,2.425-0.686,2.048-2.47
					c-0.756-3.58-1.423-7.179-2.127-10.77c0.248-4.249-0.572-8.416-0.956-12.616c0.051-0.574,0.204-1.161,0.138-1.722
					c-1.602-13.655-3.492-27.268-5.943-40.799c-0.247-4.19-0.437-8.386-1.285-12.515c-0.995-13.472-2.266-26.915-4.156-40.657
					c-1.238,8.674-2.534,16.965-3.568,25.289c-0.665,5.35-0.944,10.748-1.395,16.124c-0.334,4.155-0.669,8.31-1.003,12.465
					c-1.385,8.309-1.665,16.734-2.631,25.087c-0.701,6.057-0.785,12.182-2.007,18.18c0.369,4.422-0.829,8.756-0.743,13.162
					c-1.87,10.552-1.87,10.552,6.818,10.547c3.422-0.002,5.019,1.354,5.025,4.267c0.009,4.213-1.698,6.281-5.152,6.27
					c-3.585-0.012-7.169-0.007-10.754-0.01c-6.374-0.656-12.745-0.276-19.116,0.061
					C812.561,817.363,809.824,817.332,807.088,817.301z M857.024,659.451c0.237-3.631-1.782-7.443-2.533-11.52
					c-0.196-1.067,0.227-2.668-1.564-2.466c-1.526,0.172-1.366,1.637-1.359,2.779c0.005,0.805-0.04,1.68,0.243,2.404
					c3.277,8.388,2.097,16.336-2.182,24.038c-0.58,1.043-1.545,2.468,0.172,3.26c1.348,0.622,2.01-0.695,2.621-1.683
					C855.484,671.311,856.944,665.903,857.024,659.451z M811.265,699.406c-0.114,1.912,0.5,3.161,1.187,4.37
					c3.166,5.561,8.312,9.218,12.934,13.375c0.639,0.575,1.519,0.842,2.17,0.098c0.948-1.082,0.125-1.937-0.644-2.65
					c-2.622-2.435-5.338-4.773-7.906-7.263c-2.32-2.25-4.592-4.582-5.378-7.903c-0.216-0.913,0.171-2.481-1.409-2.216
					C810.913,697.435,811.318,698.87,811.265,699.406z M879.383,807.791c0,0.112,0,0.224-0.001,0.336
					c-2.872,0-5.744-0.003-8.617,0.002c-0.861,0.002-1.692,0.21-1.826,1.187c-0.14,1.019,0.621,1.491,1.492,1.488
					c5.98-0.023,11.961-0.065,17.939-0.197c0.845-0.019,1.975-0.328,1.842-1.589c-0.107-1.009-1.083-1.185-1.858-1.201
					C885.365,807.753,882.374,807.791,879.383,807.791z M817.035,811.133c4.757-0.561,9.579-1.096,14.389-1.722
					c1.029-0.134,2.199-0.567,1.909-1.952c-0.255-1.222-1.342-0.989-2.275-0.879c-4.704,0.552-9.421,1.012-14.109,1.677
					c-1.659,0.235-4.678-0.768-4.623,1.475C812.384,812.123,815.366,810.437,817.035,811.133z M826.479,760.074
					c0.237-0.208,0.648-0.451,0.901-0.806c3.404-4.788,7.302-9.234,10.066-14.465c0.406-0.768,1.319-1.744,0.284-2.43
					c-1.04-0.689-1.547,0.498-2.083,1.214c-3.109,4.151-6.239,8.288-9.316,12.463c-0.535,0.726-0.993,1.574-1.233,2.435
					C824.861,759.338,825.162,760.108,826.479,760.074z M877.64,728.845c-1.149,0-2.298-0.012-3.447,0.003
					c-1.076,0.014-2.233,0.115-2.247,1.512c-0.014,1.32,1.122,1.67,2.172,1.751c3.574,0.276,7.128,0.195,10.511-1.206
					c0.951-0.394,2.148-0.847,1.741-2.151c-0.426-1.365-1.664-0.995-2.615-0.622C881.767,728.911,879.707,728.874,877.64,728.845z
					 M885.094,733.767c-1.83,0.753-3.959,1.634-6.092,2.506c-0.821,0.336-1.48,0.837-1.169,1.812
					c0.283,0.889,1.103,1.261,1.95,1.073c2.377-0.53,4.641-1.402,6.676-2.76c0.621-0.415,0.794-1.122,0.436-1.842
					C886.606,733.97,886.057,733.812,885.094,733.767z"/>
				<path style="fill:#F2D257;" d="M883.862,638.42c-23.166,0.287-46.328,0.891-69.499,0.625c-3.589-0.041-7.18,0.066-10.77,0.105
					c-4.493-0.047-8.986-0.145-13.479-0.122c-2.973,0.015-4.55-1.128-4.373-4.312c0.153-2.753-1.071-3.233-3.359-1.848
					c-3.354,2.031-20.862,6.785-24.378,8.503c-3.162,1.545-5.028,1.204-5.786-2.415c-1.365-5.713-4.432-10.709-6.772-16.013
					c-1.171-2.891-3.411-5.852-3.229-8.655c0.206-3.184,4.576-3.563,6.986-5.358c6.678-4.974,27.523-12.799,35.282-16.004
					c1.718-0.71,2.683-1.953,3.079-3.851c1.793-8.6,1.443-17.191,0.36-25.839c-1.426-11.386-1.803-22.856-0.28-34.224
					c1.122-8.374,5.87-15.498,9.718-22.86c0.82-1.57,1.557-3.072,1.661-4.843c0.868-0.184,1.62-0.946,2.61-0.533
					c1.536,0.942,2.684,2.315,4.658,2.781c9.47,2.238,16.741-0.981,22.441-8.51c9.334,0.313,15.797,5.71,21.86,12.059
					c6.873,7.198,10.422,16.029,13.11,25.33c6.067,20.992,9.31,42.658,15.273,63.695c2.221,7.834,2.656,16.172,3.933,24.276
					c0.542,3.443,1.512,6.734,3.086,9.889C887.871,634.06,887.054,636.731,883.862,638.42z M848.844,583.004
					c0.003-0.758-0.204-1.422-1.04-1.577c-1.223-0.226-1.401,0.789-1.919,1.564c-4.441,6.645-8.968,13.277-15.486,18.096
					c-10.751,7.949-22.457,14.235-34.823,19.305c-0.793,0.325-2.198,0.331-1.959,1.511c0.256,1.265,1.55,1.163,2.604,0.902
					c0.784-0.195,1.547-0.481,2.31-0.754c6.564-2.351,12.594-5.81,18.765-8.988c12.179-6.272,22.334-14.795,29.807-26.358
					C847.841,585.565,848.913,584.538,848.844,583.004z M811.437,569.11c1.049-8.655,0.161-16.748,1.298-24.777
					c1.131-7.985,2.853-15.705,7.873-22.3c0.697-0.915,1.209-1.97,1.818-2.953c0.294-0.474,0.836-0.962,0.156-1.468
					c-0.541-0.403-1.118-0.138-1.556,0.278c-0.417,0.395-0.802,0.835-1.141,1.299c-5.603,7.676-8.399,16.286-9.361,25.736
					c-0.913,8.968-0.108,18.042-1.897,26.935c-0.362,1.798,0.402,2.673,2.226,2.533c3.224-0.247,6.447-0.506,9.665-0.819
					c1.002-0.097,1.875-0.622,1.656-1.78c-0.208-1.097-1.232-1.404-2.173-1.233c-1.544,0.281-3.05,0.419-5.36,0.151
					c1.798-1.129,2.969-1.819,4.091-2.582c0.98-0.667,2.766-1.17,1.74-2.752c-0.953-1.47-2.3-0.281-3.356,0.311
					C815.346,566.681,813.636,567.777,811.437,569.11z M846.104,554.258c0,5.762-0.045,11.082,0.034,16.399
					c0.018,1.206,0.147,2.912,1.838,2.773c1.341-0.11,0.932-1.646,0.933-2.617c0.002-9.944,0.015-19.888-0.083-29.831
					c-0.027-2.768-0.565-5.509-1.669-8.078c-0.304-0.708-0.841-1.586-1.794-1.287c-1.04,0.326-0.782,1.396-0.554,2.08
					C847.111,540.596,845.535,547.709,846.104,554.258z M809.015,576.345c-0.204-0.223-0.435-0.657-0.792-0.826
					c-0.859-0.407-1.603,0.136-2.204,0.618c-2.718,2.179-5.761,3.797-8.865,5.323c-1.448,0.712-2.899,1.422-4.315,2.195
					c-1.109,0.606-1.276,1.659-0.783,2.679c0.394,0.816,1.183,0.456,1.807,0.152c4.662-2.272,9.329-4.542,13.398-7.824
					C807.957,578.099,808.759,577.559,809.015,576.345z"/>
				<path style="fill:#242423;" d="M801.631,500.775c-0.99-0.413-1.742,0.35-2.61,0.533c-2.796-3.017-1.659-6.369-0.825-9.696
					c0.875-1.832,3.512-3.402,0.077-5.566c-7.275-4.583-8.449-8.064-6.236-16.703c1.13-4.413-0.525-7.346-4.906-8.057
					c-4.256-0.69-7.743-2.345-9.657-6.382c-0.802-1.692-1.519-1.213-2.414-0.206c-1.471,0.103-1.096-1.531-1.917-2.039
					c0.147-8.249,7.148-16.359,16.615-19.245c7.197-2.194,16.487,0.978,21.017,7.17c1.432,1.957,3.015,3.817,4.291,5.87
					c2.028,3.262,4.563,5.488,8.429,6.61c5.03,1.461,6.62,3.938,6.567,9.275c-0.033,3.292,1.005,4.819,4.51,5.035
					c2.467,0.152,4.922,1.182,7.29,2.065c1.934,0.721,3.273,2.172,3.455,4.385c0.186,2.275-1.45,3.234-3.087,4.163
					c-5.827,3.304-12.112,5.75-17.724,9.455c-0.573,0.378-1.105,0.819-1.656,1.23c-1.266,0.777-2.589,1.477-3.79,2.346
					C813.628,494.951,807.995,498.513,801.631,500.775z"/>
				<path style="fill:#EAAA75;" d="M743.332,615.782c2.34,5.304,5.407,10.3,6.772,16.013c-3.104,1.916-5.713,4.496-7.778,7.372
					c-3.258,4.537-7.709,6.898-12.799,8.386c-4.111,1.202-8.286,2.194-12.617,2.143c-1.937-0.023-4.339,0.504-5.333-1.597
					c-1.108-2.343-0.906-4.985,0.388-7.356c0.799-1.465,2.022-2.574,3.615-3.108c1.968-0.66,3.994-1.698,5.978-1.662
					c8.13,0.147,11.638-5.386,14.849-11.45c0.567-1.07,0.398-1.694-0.854-2.015c-1.569-0.402-3.124-0.876-4.658-1.396
					c-1.556-0.527-3.352-1.102-2.837-3.245c0.476-1.981,1.551-3.645,3.999-3.668c1.288-0.012,2.511,0.204,3.75,0.581
					C738.25,615.523,740.74,616.079,743.332,615.782z"/>
				<path style="fill:#2A2927;" d="M773.143,452.659c0.821,0.508,0.446,2.142,1.917,2.039c-0.311,0.881-0.641,1.831-0.045,2.652
					c3.801,5.241,1.821,10.567,0.397,15.939c-0.377,1.422-0.212,2.982-0.352,4.474c-0.299,3.167,1.171,4.526,4.269,4.237
					c1.65-0.154,3.203-0.326,3.769,1.871c0.273,1.061,1.174,1.007,1.859,0.286c0.786-0.827,1.483-1.741,2.189-2.642
					c0.604-0.771,1.03-2.205,2.29-1.332c1.012,0.702,0.446,1.9-0.062,2.832c-0.982,1.804-2.411,3.194-4.346,3.944
					c2.44,3.91,6.582,3.126,9.699,4.625c-3.288,4.253-7.641,7.399-11.535,11.017c-2.359,2.192-7.012,2.053-10.431-0.023
					c-2.969-1.803-2.74-4.55-2.07-7.382c0.923-3.904,0.573-7.375-2.117-10.734c-3.674-4.588-3.419-7.3,0.406-11.665
					c2.091-2.386,2.865-5.264,3.33-8.245C772.923,460.618,773.456,456.664,773.143,452.659z"/>
				<path style="fill:#E1A370;" d="M794.727,491.584c-3.117-1.5-7.259-0.716-9.699-4.625c1.934-0.75,3.364-2.14,4.346-3.944
					c0.508-0.933,1.074-2.131,0.062-2.832c-1.26-0.873-1.686,0.56-2.29,1.332c-0.705,0.9-1.403,1.814-2.189,2.642
					c-0.685,0.722-1.585,0.776-1.859-0.286c-0.566-2.196-2.119-2.025-3.769-1.871c-3.098,0.289-4.568-1.07-4.269-4.237
					c0.141-1.491-0.025-3.052,0.352-4.474c1.425-5.372,3.404-10.698-0.397-15.939c-0.596-0.821-0.266-1.771,0.045-2.652
					c0.895-1.007,1.611-1.486,2.414,0.206c1.914,4.037,5.401,5.692,9.657,6.382c4.381,0.711,6.037,3.644,4.906,8.057
					c-2.213,8.639-1.039,12.12,6.236,16.703c3.434,2.164,0.798,3.734-0.077,5.566C797.04,491.602,795.883,491.593,794.727,491.584z
					 M784.721,464.867c-0.217-1.29-0.89-2.269-2.249-2.193c-1.228,0.068-1.719,1.069-1.677,2.241
					c0.045,1.242,0.78,1.957,1.983,1.958C784.014,466.874,784.62,466.066,784.721,464.867z"/>
				<path style="fill:#E2752C;" d="M836.465,839.396c-0.704,2.652-2.416,3.474-5.128,3.422c-7.119-0.138-14.244-0.002-21.366,0.025
					c-1.606-0.113-3.22-0.164-4.817-0.357c-1.335-0.161-2.986-0.051-3.44-1.737c-0.432-1.601-0.168-3.195,0.958-4.558
					c1.523-1.843,3.606-2.361,5.838-2.562c2.874-0.073,5.669,0.426,8.424,1.192c5.745,2.176,11.414,3.141,16.755-1.065
					C836.646,834.636,836.316,837.134,836.465,839.396z"/>
				<path style="fill:#E8A873;" d="M801.631,500.775c6.364-2.262,11.997-5.824,17.429-9.757c1.2-0.869,2.524-1.569,3.79-2.346
					c1.151,2.872,5.107,3.155,5.88,6.375c-5.7,7.528-12.971,10.748-22.441,8.51C804.315,503.09,803.167,501.717,801.631,500.775z"/>
				<path style="fill:#E8A873;" d="M868.883,834.365c-0.491-5.371-1.489-10.637-3.258-15.744c7.664-0.362,15.328-1.194,22.993-0.007
					c-0.433,4.381-1.118,8.747-0.769,13.174c-1.3-0.141-2.518-0.085-3.494,1c-3,3.336-6.686,3.802-10.732,2.396
					C872.072,834.646,870.488,834.491,868.883,834.365z"/>
				<path style="fill:#E8A873;" d="M834.413,817.333c-0.711,5.454-1.151,10.92-0.725,16.424c-5.341,4.206-11.01,3.241-16.755,1.065
					c0.216-5.879-1.803-11.551-1.634-17.427C821.669,817.057,828.039,816.677,834.413,817.333z"/>
				<path style="fill:#E6E7C9;" d="M857.024,659.451c-0.08,6.452-1.54,11.86-4.602,16.811c-0.611,0.988-1.272,2.305-2.621,1.683
					c-1.717-0.792-0.752-2.216-0.172-3.26c4.278-7.702,5.459-15.65,2.182-24.038c-0.283-0.724-0.237-1.599-0.243-2.404
					c-0.008-1.142-0.167-2.607,1.359-2.779c1.791-0.201,1.367,1.399,1.564,2.466C855.242,652.008,857.261,655.82,857.024,659.451z"
					/>
				<path style="fill:#E6E7C9;" d="M811.265,699.406c0.053-0.536-0.352-1.971,0.954-2.191c1.58-0.265,1.193,1.303,1.409,2.216
					c0.786,3.321,3.058,5.653,5.378,7.903c2.568,2.49,5.284,4.828,7.906,7.263c0.768,0.713,1.591,1.568,0.644,2.65
					c-0.651,0.744-1.531,0.477-2.17-0.098c-4.622-4.156-9.768-7.813-12.934-13.375C811.764,702.567,811.151,701.318,811.265,699.406
					z"/>
				<path style="fill:#E6E7C9;" d="M879.383,807.791c2.99,0,5.982-0.038,8.971,0.026c0.776,0.016,1.752,0.192,1.858,1.201
					c0.134,1.262-0.997,1.571-1.842,1.589c-5.978,0.132-11.959,0.174-17.939,0.197c-0.871,0.003-1.632-0.469-1.492-1.488
					c0.134-0.978,0.965-1.186,1.826-1.187c2.872-0.006,5.744-0.002,8.617-0.002C879.383,808.015,879.383,807.903,879.383,807.791z"
					/>
				<path style="fill:#E6E7C9;" d="M817.035,811.133c-1.668-0.697-4.651,0.989-4.709-1.402c-0.055-2.243,2.964-1.24,4.623-1.475
					c4.688-0.664,9.405-1.125,14.109-1.677c0.934-0.11,2.02-0.343,2.275,0.879c0.289,1.385-0.88,1.818-1.909,1.952
					C826.614,810.038,821.792,810.573,817.035,811.133z"/>
				<path style="fill:#E6E7C9;" d="M826.479,760.074c-1.317,0.034-1.618-0.737-1.38-1.588c0.241-0.862,0.698-1.709,1.233-2.435
					c3.077-4.175,6.206-8.312,9.316-12.463c0.536-0.715,1.043-1.903,2.083-1.214c1.036,0.686,0.122,1.661-0.284,2.43
					c-2.765,5.23-6.663,9.677-10.066,14.465C827.128,759.624,826.717,759.867,826.479,760.074z"/>
				<path style="fill:#E6E7C9;" d="M877.64,728.845c2.067,0.029,4.127,0.066,6.116-0.713c0.95-0.372,2.189-0.743,2.615,0.622
					c0.407,1.304-0.79,1.757-1.741,2.151c-3.384,1.401-6.937,1.481-10.511,1.206c-1.05-0.081-2.186-0.431-2.172-1.751
					c0.015-1.397,1.171-1.498,2.247-1.512C875.341,728.834,876.491,728.845,877.64,728.845z"/>
				<path style="fill:#E6E7C9;" d="M885.094,733.767c0.963,0.045,1.512,0.204,1.802,0.787c0.358,0.72,0.185,1.427-0.436,1.842
					c-2.035,1.359-4.299,2.231-6.676,2.76c-0.847,0.189-1.667-0.184-1.95-1.073c-0.311-0.975,0.348-1.476,1.169-1.812
					C881.135,735.401,883.264,734.52,885.094,733.767z"/>
				<path style="fill:#E2752C;" d="M868.883,834.365c1.605,0.126,3.19,0.28,4.741,0.82c4.045,1.406,7.732,0.94,10.732-2.396
					c0.975-1.085,2.194-1.141,3.494-1c2.857,2.097,2.315,5.052,1.879,7.898c-0.239,1.56-1.599,1.797-2.946,1.801
					c-9.352,0.024-18.705,0.026-28.057,0.083c-2.079,0.013-3.17-1.093-3.809-2.886c0.757-3.441,2.913-5.088,6.414-4.894
					C863.851,833.929,866.365,834.17,868.883,834.365z"/>
				<path style="fill:#FAEFC3;" d="M848.845,583.002c0.068,1.535-1.004,2.563-1.74,3.703c-7.473,11.563-17.628,20.086-29.807,26.358
					c-6.171,3.178-12.201,6.637-18.765,8.988c-0.763,0.273-1.526,0.56-2.31,0.754c-1.055,0.262-2.348,0.364-2.604-0.902
					c-0.239-1.18,1.166-1.186,1.959-1.511c12.366-5.07,24.071-11.355,34.823-19.305c6.517-4.819,11.045-11.451,15.486-18.096
					c0.518-0.775,0.697-1.79,1.919-1.564C848.641,581.581,848.847,582.245,848.845,583.002z"/>
				<path style="fill:#FAEFC3;" d="M811.437,569.11c2.199-1.333,3.909-2.429,5.678-3.421c1.056-0.592,2.403-1.78,3.356-0.311
					c1.026,1.582-0.76,2.085-1.74,2.752c-1.122,0.763-2.293,1.454-4.091,2.582c2.31,0.268,3.816,0.13,5.36-0.151
					c0.941-0.171,1.965,0.135,2.173,1.233c0.219,1.158-0.654,1.683-1.656,1.78c-3.218,0.312-6.441,0.572-9.665,0.819
					c-1.824,0.14-2.587-0.735-2.226-2.533c1.789-8.893,0.984-17.967,1.897-26.935c0.962-9.45,3.758-18.061,9.361-25.736
					c0.339-0.464,0.724-0.904,1.141-1.299c0.438-0.416,1.015-0.68,1.556-0.278c0.68,0.506,0.138,0.994-0.156,1.468
					c-0.609,0.983-1.121,2.038-1.818,2.953c-5.02,6.595-6.742,14.315-7.873,22.3C811.598,552.362,812.487,560.456,811.437,569.11z"
					/>
				<path style="fill:#FAEFC3;" d="M846.104,554.258c-0.569-6.549,1.007-13.663-1.295-20.561c-0.228-0.685-0.487-1.754,0.554-2.08
					c0.953-0.299,1.489,0.579,1.794,1.287c1.104,2.569,1.642,5.31,1.669,8.078c0.099,9.943,0.086,19.887,0.083,29.831
					c0,0.971,0.409,2.507-0.933,2.617c-1.692,0.139-1.82-1.567-1.838-2.773C846.059,565.34,846.104,560.021,846.104,554.258z"/>
				<path style="fill:#FAEFC3;" d="M809.015,576.345c-0.256,1.214-1.057,1.754-1.755,2.316c-4.068,3.281-8.736,5.552-13.398,7.824
					c-0.624,0.304-1.413,0.664-1.807-0.152c-0.493-1.02-0.326-2.073,0.783-2.679c1.416-0.773,2.867-1.483,4.315-2.195
					c3.104-1.526,6.147-3.144,8.865-5.323c0.601-0.482,1.345-1.025,2.204-0.618C808.58,575.688,808.81,576.123,809.015,576.345z"/>
				<path style="fill:#2A2927;" d="M784.721,464.867c-0.101,1.198-0.707,2.006-1.943,2.006c-1.202-0.001-1.938-0.716-1.983-1.958
					c-0.042-1.172,0.449-2.173,1.677-2.241C783.831,462.599,784.504,463.578,784.721,464.867z"/>
			</g>
		</g>
	</g>
</g>
</svg>
