<?xml version="1.0" encoding="utf-8"?>
<!-- Generator: Adobe Illustrator 27.5.0, SVG Export Plug-In . SVG Version: 6.00 Build 0)  -->
<svg version="1.1" xmlns="http://www.w3.org/2000/svg" xmlns:xlink="http://www.w3.org/1999/xlink" x="0px" y="0px"
	 viewBox="0 0 750 500" style="enable-background:new 0 0 750 500;" xml:space="preserve">
<g id="BACKGROUND">
	<rect style="fill:#F9ECE8;" width="750" height="498.115"/>
</g>
<g id="OBJECTS">
	<g>
		<g>
			<g>
				<path style="fill:#312220;" d="M314.815,432.697h129.27c16.5,0,29.877-13.376,29.877-29.876V131.735
					c0-16.5-13.376-29.876-29.877-29.876h-129.27c-16.5,0-29.876,13.376-29.876,29.876v271.086
					C284.939,419.321,298.315,432.697,314.815,432.697z"/>
				<path style="fill:#ECC0B0;" d="M295.674,432.697h129.27c16.5,0,29.876-13.376,29.876-29.876V131.735
					c0-16.5-13.376-29.876-29.876-29.876h-129.27c-16.5,0-29.876,13.376-29.876,29.876v271.086
					C265.797,419.321,279.173,432.697,295.674,432.697z"/>
				<path style="fill:#FFFFFF;" d="M295.496,423.646h129.626c11.359,0,20.568-9.209,20.568-20.568V133.37
					c0-11.359-9.209-20.568-20.568-20.568H295.496c-11.359,0-20.568,9.209-20.568,20.568v269.708
					C274.928,414.437,284.137,423.646,295.496,423.646z"/>
				<path style="fill:#ECC0B0;" d="M328.621,122.903h61.974c3.068,0,5.556-2.487,5.556-5.556v-9.062h-73.086v9.062
					C323.065,120.415,325.552,122.903,328.621,122.903z"/>
				
					<line style="fill:none;stroke:#312220;stroke-width:1.0014;stroke-linecap:round;stroke-linejoin:round;stroke-miterlimit:10;" x1="348.057" y1="113.592" x2="371.459" y2="113.592"/>
			</g>
			<path style="fill:none;stroke:#F7EAE6;stroke-width:2.1594;stroke-miterlimit:10;" d="M399.249,295.887h12.145
				c4.84,0,8.764,3.924,8.764,8.764v79.343c0,4.84-3.924,8.764-8.764,8.764h-12.145c-4.84,0-8.764-3.924-8.764-8.764v-79.343
				C390.485,299.811,394.409,295.887,399.249,295.887z"/>
			<path style="fill:none;stroke:#F7EAE6;stroke-width:2.1594;stroke-miterlimit:10;" d="M300.171,145.69h61.915
				c4.843,0,8.769,3.926,8.769,8.769v30.539c0,4.843-3.926,8.769-8.769,8.769h-61.915c-4.843,0-8.769-3.926-8.769-8.769v-30.539
				C291.402,149.616,295.328,145.69,300.171,145.69z"/>
			<circle style="fill:none;stroke:#F7EAE6;stroke-width:2.1581;stroke-miterlimit:10;" cx="321.913" cy="243.513" r="30.51"/>
			<g>
				<path style="fill:#F7EAE6;" d="M300.166,295.159h65.91c4.84,0,8.764,3.924,8.764,8.764v82.132c0,4.84-3.924,8.764-8.764,8.764
					h-65.91c-4.84,0-8.764-3.924-8.764-8.764v-82.132C291.402,299.083,295.326,295.159,300.166,295.159z"/>
				<g>
					<g>
						<rect x="304.059" y="343.126" style="fill:#FFFFFF;" width="58.125" height="2.635"/>
						<rect x="304.059" y="353.116" style="fill:#FFFFFF;" width="12.674" height="2.635"/>
						<rect x="304.059" y="363.106" style="fill:#FFFFFF;" width="58.125" height="2.635"/>
						<rect x="304.059" y="373.096" style="fill:#FFFFFF;" width="31.795" height="2.635"/>
					</g>
					<rect x="304.059" y="311.374" style="fill:#6E85F6;" width="21.442" height="21.442"/>
				</g>
			</g>
			<g>
				<path style="fill:#F7EAE6;" d="M383.227,214.893h36.177c4.84,0,8.764,3.924,8.764,8.764v38.894c0,4.84-3.924,8.764-8.764,8.764
					h-36.177c-4.84,0-8.764-3.924-8.764-8.764v-38.894C374.463,218.816,378.387,214.893,383.227,214.893z"/>
				<g>
					<path style="fill:#76C8A8;" d="M417.626,250.687c0,2.955-2.395,5.35-5.35,5.35c-2.955,0-5.35-2.395-5.35-5.35
						s2.395-5.35,5.35-5.35C415.23,245.337,417.626,247.732,417.626,250.687z"/>
					<g>
						<rect x="384.543" y="232.045" style="fill:#FFFFFF;" width="33.068" height="2.607"/>
						<rect x="384.543" y="241.931" style="fill:#FFFFFF;" width="7.71" height="2.607"/>
						<rect x="384.543" y="252.819" style="fill:#FFFFFF;" width="17.9" height="2.607"/>
					</g>
				</g>
			</g>
		</g>
		<g>
			<g>
				<g>
					<g>
						<polygon style="fill:#EAADC7;" points="504.477,66.229 531.727,84.396 543.839,51.762 						"/>
						<polygon style="fill:#D47BA5;" points="518.457,84.396 519.909,76.166 537.659,57.286 514.906,72.616 						"/>
					</g>
					<path style="fill:none;stroke:#FFFFFF;stroke-width:2;stroke-miterlimit:10;" d="M518.127,90.252c0,0,0,22.042-25.581,20.691"
						/>
				</g>
				<g>
					<g>
						<g>
							<g>
								<path style="fill:#76C8A8;" d="M191.358,118.363h-45.843c-4.056,0-7.344-3.288-7.344-7.344v-39.3
									c0-3.165,2.566-5.731,5.731-5.731h47.457c3.165,0,5.731,2.566,5.731,5.731v40.914
									C197.089,115.798,194.523,118.363,191.358,118.363z"/>
							</g>
						</g>
					</g>
					<g>
						<g>
							<g>
								<path style="fill:#FFFFFF;" d="M163.242,102.184c4.509,0.077,9.074,0.138,13.22-0.148c1.313-0.091,2.447-2.176,0.853-2.835
									c0.671-0.344,1.35-0.676,1.644-1.428c0.277-0.712-0.056-1.678-0.798-1.862c1.564,0.387,2.18-2.095,0.96-2.896
									c0.646-0.55,1.183-1.277,1.319-2.114c0.136-0.837-0.207-1.782-0.951-2.188c-0.488-0.266-1.07-0.276-1.625-0.281
									c-1.875-0.014-3.75-0.028-5.625-0.042c0.508-2.934,0.661-6.132-0.831-8.709c-0.449-0.776-1.656-1.707-2.614-1.11
									c-0.898,0.56-0.649,1.952-0.604,2.83c0.188,3.65-1.889,7.321-5.114,9.041C163.076,90.443,163.289,98.218,163.242,102.184z"
									/>
							</g>
						</g>
						<rect x="154.793" y="90.443" style="fill:#FFFFFF;" width="6.815" height="11.73"/>
					</g>
				</g>
				<g>
					<g>
						<g>
							<path style="fill:#6E85F6;" d="M644.576,152.748h-28.402c-3.791,0-6.865-3.074-6.865-6.865l0,0
								c0-3.792,3.073-6.865,6.865-6.865h28.402c3.792,0,6.865,3.074,6.865,6.865l0,0
								C651.441,149.674,648.368,152.748,644.576,152.748z"/>
						</g>
						<g>
							<path style="fill:#FFFFFF;" d="M624.598,145.901c0.003,0.97-0.781,1.759-1.751,1.762c-0.97,0.003-1.759-0.781-1.762-1.751
								c-0.003-0.97,0.781-1.759,1.751-1.762C623.806,144.147,624.595,144.931,624.598,145.901z"/>
							<path style="fill:#FFFFFF;" d="M632.132,145.877c0.003,0.97-0.781,1.759-1.751,1.762c-0.97,0.003-1.759-0.781-1.762-1.751
								c-0.003-0.97,0.781-1.759,1.751-1.762C631.34,144.123,632.129,144.907,632.132,145.877z"/>
							<path style="fill:#FFFFFF;" d="M639.666,145.854c0.003,0.97-0.781,1.759-1.751,1.762c-0.97,0.003-1.759-0.781-1.762-1.751
								c-0.003-0.97,0.781-1.759,1.751-1.762C638.874,144.1,639.663,144.884,639.666,145.854z"/>
						</g>
					</g>
				</g>
				<path style="fill:#EAADC7;" d="M665.433,292.099l-54.157,0.052c-1.619,0.002-2.934-1.309-2.936-2.928l0,0
					c-0.002-1.619,1.309-2.934,2.928-2.936l54.157-0.053c1.619-0.002,2.934,1.309,2.936,2.928l0,0
					C668.364,290.782,667.053,292.097,665.433,292.099z"/>
				<path style="fill:#76C8A8;" d="M117.207,229.645l-53.728,0.052c-1.619,0.002-2.934-1.309-2.936-2.928l0,0
					c-0.002-1.619,1.309-2.933,2.928-2.936l53.728-0.052c1.619-0.002,2.934,1.309,2.936,2.928l0,0
					C120.138,228.328,118.827,229.642,117.207,229.645z"/>
				<path style="fill:#76C8A8;" d="M638.017,206.779l-4.204,0.006c-1.104,0.002-2.001-0.893-2.002-1.997l-0.006-3.945
					c-0.001-1.104,0.893-2.001,1.997-2.003l4.204-0.006c1.104-0.001,2.001,0.893,2.002,1.997l0.005,3.945
					C640.015,205.881,639.121,206.778,638.017,206.779z"/>
				<path style="fill:#6E85F6;" d="M118.726,280.1l-5.759,0.008c-1.513,0.002-2.741-1.223-2.743-2.736l-0.007-5.404
					c-0.002-1.513,1.223-2.741,2.736-2.743l5.759-0.008c1.513-0.002,2.741,1.223,2.743,2.736l0.007,5.404
					C121.464,278.87,120.239,280.098,118.726,280.1z"/>
			</g>
			<g>
				
					<ellipse style="fill:none;stroke:#FFFFFF;stroke-width:2;stroke-miterlimit:10;" cx="600.469" cy="94.12" rx="6.574" ry="6.666"/>
				
					<ellipse style="fill:none;stroke:#FFFFFF;stroke-width:2;stroke-miterlimit:10;" cx="332.5" cy="61.709" rx="6.574" ry="6.666"/>
				
					<ellipse style="fill:none;stroke:#FFFFFF;stroke-width:2;stroke-miterlimit:10;" cx="104.274" cy="341.539" rx="6.574" ry="6.666"/>
				
					<rect x="82.982" y="127.121" style="fill:none;stroke:#FFFFFF;stroke-width:2;stroke-miterlimit:10;" width="7.426" height="7.529"/>
				
					<rect x="640.58" y="340.016" style="fill:none;stroke:#FFFFFF;stroke-width:2;stroke-miterlimit:10;" width="7.426" height="7.529"/>
			</g>
		</g>
	</g>
	<g>
		<g>
			<g>
				<polygon style="fill:#325847;" points="575.172,286.218 525.482,286.218 522.039,273.393 575.172,273 				"/>
				<g>
					<g>
						<polygon style="fill:#D08864;" points="520.98,420.629 516.884,397.238 531.27,396.5 535.372,422.197 523.569,422.197 						
							"/>
						<g>
							<path style="fill:#312220;" d="M536.426,415.112c0,0-12.463,5.29-18.244-3.218l-26.885,16.163h48.895L536.426,415.112z"/>
							
								<rect x="491.297" y="428.057" transform="matrix(-1 -1.224647e-16 1.224647e-16 -1 1031.4894 860.7317)" style="fill:#FFFFFF;" width="48.895" height="4.618"/>
						</g>
					</g>
					<g>
						<g>
							<path style="fill:#325847;" d="M522.039,273.393l-22.626,65.617c-0.955,2.417-1.143,4.987-0.549,7.478l12.489,57.211h27.196
								l-9.295-60.651l28.831-66.08L522.039,273.393z"/>
							<g>
								<polygon style="fill:#44775D;" points="541.745,403.7 508.904,403.7 506.404,393.178 539.245,393.178 								"/>
							</g>
						</g>
					</g>
				</g>
				<g>
					<g>
						<polygon style="fill:#D08864;" points="577.351,420.629 573.255,397.238 587.641,396.5 591.743,422.197 579.94,422.197 						
							"/>
						<g>
							<path style="fill:#312220;" d="M592.797,415.112c0,0-12.463,5.29-18.243-3.218l-26.885,16.163h48.895L592.797,415.112z"/>
							
								<rect x="547.668" y="428.057" transform="matrix(-1 -1.224647e-16 1.224647e-16 -1 1144.2314 860.7317)" style="fill:#FFFFFF;" width="48.895" height="4.618"/>
						</g>
					</g>
					<g>
						<g>
							<g>
								<polygon style="fill:#325847;" points="575.172,273 594.995,403.576 567.217,403.7 539.173,276.968 								"/>
								<g>
									<polygon style="fill:#44775D;" points="598.459,403.7 564.845,403.7 562.345,393.178 595.959,393.178 									"/>
								</g>
							</g>
						</g>
						
							<line style="fill:none;stroke:#312220;stroke-width:0.7155;stroke-linecap:round;stroke-linejoin:round;stroke-miterlimit:10;" x1="545.181" y1="306.546" x2="533.036" y2="298.921"/>
					</g>
				</g>
			</g>
			<g>
				<g>
					<path style="fill:#F0D348;" d="M524.1,195.976l-35.177,29.362c-4.568,3.813-5.153,10.619-1.303,15.155v0
						c3.483,4.104,9.471,4.985,13.989,2.06l28.018-18.143L524.1,195.976z"/>
					<g>
						<g>
							<path style="fill:#D08864;" d="M464.237,204.123l12.19-8.638l-1.666-14.963c0,0-0.633-7.797-8.701-8.543L464.237,204.123z"/>
							<g>
								<path style="fill:#6E85F6;" d="M461.242,193.705h-63.981c-2.949,0-5.34-2.391-5.34-5.34v-38.326
									c0-2.949,2.391-5.34,5.34-5.34h63.981c2.949,0,5.34,2.391,5.34,5.34v38.326
									C466.582,191.314,464.191,193.705,461.242,193.705z"/>
							</g>
							<g>
								<defs>
									<circle id="XMLID_21_" cx="429.158" cy="168.707" r="12.972"/>
								</defs>
								<use xlink:href="#XMLID_21_"  style="overflow:visible;fill:#FFFFFF;"/>
								<clipPath id="XMLID_00000012442483679159760780000013784054807139075464_">
									<use xlink:href="#XMLID_21_"  style="overflow:visible;"/>
								</clipPath>
								<polygon style="clip-path:url(#XMLID_00000012442483679159760780000013784054807139075464_);fill:#F0D348;" points="
									429.158,151.194 429.158,168.707 441.594,158.197 434.021,151.447 								"/>
							</g>
							<path style="fill:#D08864;" d="M470.538,195.172l-10.98-8.764c-0.755-0.942-2.123-1.109-3.083-0.378l0,0
								c-0.875,0.667-1.131,1.873-0.602,2.837l8.54,15.255L470.538,195.172z"/>
						</g>
						<path style="fill:#F0D348;" d="M477.264,193.047l26.085,35.179c3.194,4.36,2.403,10.46-1.798,13.861l0,0
							c-4.625,3.746-11.467,2.716-14.786-2.224l-24.56-35.818L477.264,193.047z"/>
					</g>
				</g>
				<g>
					<path style="fill:#F0D348;" d="M521.65,200.517l0.508,72.425l54.326,1.018l7.411-69.661c0.541-3.793-1.834-7.393-5.534-8.388
						l-10.309-2.173l-31.557-0.914l-10.144,2.161C523.703,195.537,521.768,197.815,521.65,200.517z"/>
					
						<line style="fill:none;stroke:#312220;stroke-width:0.7155;stroke-linecap:round;stroke-linejoin:round;stroke-miterlimit:10;" x1="521.65" y1="229.576" x2="521.65" y2="215.728"/>
				</g>
				<g>
					<g>
						<path style="fill:#D08864;" d="M557.036,277.605l10.378-7.142l-1.418-2.298c-0.516-0.837-0.409-1.915,0.262-2.633
							c0.692-0.742,1.805-0.908,2.684-0.401l9.471,5.464l10.331,8.817c-5.328,5.949-9.266,6.409-11.664,5.713
							c-0.253,0.123-0.501,0.255-0.759,0.367l-8.898,3.884c-0.806,0.483-1.85,0.255-2.38-0.521
							c-0.385-0.563-0.621-1.516,1.039-2.658l-1.66,1.141c-0.853,0.511-1.957,0.255-2.498-0.579
							c-0.502-0.734-0.153-1.839,0.802-2.659l-1.292,0.717c-0.93,0.558-2.157,0.227-2.666-0.771
							c-0.44-0.863-0.094-1.927,0.705-2.474l1.835-1.257l-2.261,0.877c-1.025,0.523-2.301,0.108-2.804-0.972
							C555.813,279.293,556.195,278.184,557.036,277.605z"/>
						<path style="fill:#F0D348;" d="M573.46,267.406l24.842-37.543c3.825-3.818,11.032-3.962,15.032-0.327l0,0
							c4.404,4.003,4.308,10.15,0.669,15.484l-24.99,35.471L573.46,267.406z"/>
					</g>
					<g>
						<path style="fill:#F0D348;" d="M566.177,199.001c-5.018,4.986-4.735,13.187,0.614,17.815l31.905,27.743
							c8.623,7.607,7.117,8.277,15.177-1.013l0,0c3.528-4.066,3.49-10.118-0.088-14.139l-30.458-30.388
							C578.591,194.293,570.924,194.285,566.177,199.001L566.177,199.001z"/>
						
							<line style="fill:none;stroke:#312220;stroke-width:0.7155;stroke-linecap:round;stroke-linejoin:round;stroke-miterlimit:10;" x1="581.227" y1="229.369" x2="570.691" y2="220.07"/>
						
							<line style="fill:none;stroke:#312220;stroke-width:0.7155;stroke-linecap:round;stroke-linejoin:round;stroke-miterlimit:10;" x1="581.227" y1="229.369" x2="570.691" y2="220.07"/>
					</g>
				</g>
			</g>
			<g>
				<path style="fill:#312220;" d="M540.488,164.216c0.17,3.029-2.07,5.63-5.004,5.808c-2.934,0.178-6.023-2.15-6.193-5.179
					c-0.17-3.029,2.07-5.63,5.004-5.808C537.228,158.859,540.317,161.187,540.488,164.216z"/>
				<path style="fill:#D08864;" d="M543.163,178.56l-0.135,13.125c-0.057,4.609,2.664,7.096,7.06,7.096l0,0
					c3.752,0,7.89-1.777,7.768-5.841l-0.751-20.661L543.163,178.56z"/>
				<path style="fill:#312220;" d="M542.999,188.831c0,0,12.662-8.681,12.52-10.358c-0.333-3.919-12.368-1.259-12.368-1.259
					L542.999,188.831z"/>
				<path style="fill:#D08864;" d="M547.062,182.423L547.062,182.423c-7.495-0.06-13.617-6.224-13.771-12.546l-0.25-13.228
					c-0.193-7.924,5.736-14.582,13.4-15.048l0,0c7.846-0.476,18.106,5.684,18.561,13.785l-2.086,10.248
					C562.99,174.917,556.037,181.879,547.062,182.423z"/>
				<path style="fill:#312220;" d="M561.513,164.714l-1.992-3.179c-0.43-2.868,0.085-5.429,0.732-6.815
					c0.741-1.588,0.656-4.081-2.092-6.121c-4.032-2.994-12.278-5.174-19.576-2.228c-2.06,0.832-3.74,2.431-4.607,4.476
					c-0.387,0.912-0.684,1.889-0.71,2.775l0.034-1.98c0.129-7.504,6.341-12.888,13.844-12.71c2.628,0.062,5.629-0.208,8.954,0.382
					c8.404,1.492,14.835,9.35,12.295,17.499l-2.637,5.46L561.513,164.714z"/>
				<g>
					<path style="fill:#D08864;" d="M570.92,165.475c0.169,3-2.622,5.558-5.528,5.735c-2.905,0.176-5.397-2.113-5.566-5.113
						c-0.169-3,3.195-5.542,6.1-5.718C568.832,160.202,570.751,162.475,570.92,165.475z"/>
					
						<path style="fill:none;stroke:#312220;stroke-width:0.7155;stroke-linecap:round;stroke-linejoin:round;stroke-miterlimit:10;" d="
						M563.349,167.729c0,0,0.628-4.178,4.605-3.506"/>
				</g>
				<path style="fill:#312220;" d="M558.162,148.599c0,0-2.109-1.218-5.837,0.37c-7.745,3.3-17.006,0.732-15.888-2.98l9.777-2.983
					l11.305,1.459L558.162,148.599z"/>
				<g>
					
						<polyline style="fill:none;stroke:#312220;stroke-width:0.7155;stroke-linecap:round;stroke-linejoin:round;stroke-miterlimit:10;" points="
						541.239,164.714 540.811,167.406 542.663,167.496 					"/>
					<path style="fill:#312220;" d="M538.545,162.209c0.015,0.735-0.55,1.344-1.261,1.36c-0.712,0.016-1.301-0.567-1.316-1.301
						c-0.015-0.735,0.549-1.344,1.261-1.36C537.94,160.892,538.529,161.475,538.545,162.209z"/>
					<path style="fill:#312220;" d="M550.379,161.963c0.015,0.735-0.549,1.344-1.261,1.36c-0.712,0.016-1.301-0.567-1.316-1.301
						c-0.015-0.735,0.55-1.344,1.261-1.36C549.775,160.645,550.364,161.228,550.379,161.963z"/>
					<path style="fill:#FFFFFF;" d="M539.89,170.162l10.581-0.063c0,0-1.491,3.785-5.931,3.851
						C540.885,174.005,539.89,170.162,539.89,170.162z"/>
					<path style="fill:#312220;" d="M539.775,157.043c-0.486,0.093-0.954,0.097-1.403,0.113c-0.44,0.012-0.904-0.008-1.276,0.016
						c-0.768,0.058-1.664,0.356-2.583,0.559l-0.02,0.005c-0.176,0.039-0.351-0.072-0.39-0.249c-0.024-0.11,0.011-0.22,0.083-0.296
						c0.365-0.382,0.773-0.672,1.227-0.923c0.454-0.244,0.951-0.439,1.523-0.525c0.58-0.069,1.076-0.037,1.585,0.075
						c0.5,0.123,0.976,0.29,1.418,0.615c0.151,0.111,0.183,0.323,0.073,0.474c-0.052,0.072-0.128,0.117-0.209,0.132L539.775,157.043
						z"/>
					<path style="fill:#312220;" d="M546.442,156.199c0.708-0.355,1.438-0.529,2.185-0.641c0.751-0.104,1.499-0.109,2.289,0.001
						c0.798,0.113,1.526,0.384,2.221,0.707c0.692,0.337,1.344,0.726,1.95,1.234c0.142,0.119,0.169,0.343,0.06,0.5
						c-0.082,0.117-0.216,0.164-0.339,0.13l-0.014-0.004c-1.384-0.382-2.758-0.841-4.053-0.986c-0.651-0.064-1.358-0.06-2.054-0.091
						c-0.701-0.033-1.416-0.05-2.141-0.158l-0.014-0.002c-0.181-0.027-0.307-0.21-0.282-0.409
						C546.267,156.353,546.343,156.249,546.442,156.199z"/>
					<g>
						<path style="fill:none;stroke:#F0D348;stroke-width:1.0917;stroke-miterlimit:10;" d="M540.238,162.386
							c-0.062,3.775-3.172,6.785-6.947,6.724c-3.775-0.062-6.785-3.172-6.724-6.947c0.061-3.775,3.172-6.785,6.947-6.724
							C537.289,155.501,540.299,158.611,540.238,162.386z"/>
						<circle style="fill:none;stroke:#F0D348;stroke-width:1.0917;stroke-miterlimit:10;" cx="551.291" cy="161.882" r="7.009"/>
						<path style="fill:none;stroke:#F0D348;stroke-width:1.0917;stroke-miterlimit:10;" d="M540.228,162.971
							c0,0,1.855-1.438,4.15,0.068"/>
						
							<line style="fill:none;stroke:#F0D348;stroke-width:1.0917;stroke-linecap:round;stroke-miterlimit:10;" x1="558.129" y1="160.347" x2="560.835" y2="162.887"/>
					</g>
				</g>
				<path style="fill:#D08864;" d="M536.495,192.824c0,0,15.167-2.529,31.557,0.914l-24.009,12.169L536.495,192.824z"/>
			</g>
		</g>
		<g>
			<g>
				<polygon style="fill:#DFB590;" points="217.246,199.05 211.974,216.084 195.989,211.362 206.348,185.547 				"/>
				<polygon style="fill:#312220;" points="214.704,207.324 208.178,197.307 216.691,201.083 				"/>
				<path style="fill:#DFB590;" d="M223.003,164.814c0,0,9.046,1.788,9.729,11.862c0,0,0.271,5.921-0.626,16.415
					c-0.61,7.136-7.451,10.307-12.913,9.238c-3.345-0.654-9.521-3.908-12.874-6.368l1.03-1.611
					c-11.12-11.846-1.672-31.464,14.479-29.689C222.213,164.704,222.605,164.755,223.003,164.814z"/>
				<path style="fill:#DFB590;" d="M231.625,185.468l2.564,4.496c0.597,0.937,0.508,1.567-0.178,1.657l-3.217,0.178L231.625,185.468
					z"/>
				<path style="fill:#CE2C51;" d="M213.856,183.876l2.55-9.678c0,0,9.869,1.144,16.029,0.335c0,0,2.365-14.557-19.51-16.504
					c-14.205-1.264-23.841,12.848-18.843,24.78c0.791,1.889,4.971,6.602,7.781,13.915c0,0,5.565-6.363,3.613-12.58L213.856,183.876z
					"/>
				<g>
					<path style="fill:#DFB590;" d="M201.078,182.904c-0.18,3.155,2.232,5.858,5.386,6.038c3.155,0.18,5.858-2.231,6.038-5.386
						c0.18-3.155-2.231-5.858-5.386-6.038C203.961,177.337,201.257,179.749,201.078,182.904z"/>
					
						<path style="fill:none;stroke:#312220;stroke-width:0.7639;stroke-linecap:round;stroke-linejoin:round;stroke-miterlimit:10;" d="
						M209.254,184.517c0,0,0.114-3.567-3.778-3.191"/>
				</g>
				<path style="fill:#CE2C51;" d="M196.459,166.441c0,0-3.073-10.663-14.687-8.431c-11.614,2.232-28.416,26.764-28.416,26.764
					s-5.898,8.573,1.247,12.265c7.146,3.692,18.736-3.13,26.389-16.747s12.784-14.988,14.822-10.968L196.459,166.441z"/>
				<g>
					<g>
						<g>
							<path style="fill:#312220;" d="M227.744,184.473c-0.137,0.674,0.282,1.329,0.935,1.463c0.653,0.134,1.293-0.305,1.429-0.979
								c0.136-0.675-0.282-1.329-0.935-1.463C228.52,183.36,227.88,183.798,227.744,184.473z"/>
						</g>
					</g>
					
						<path style="fill:none;stroke:#312220;stroke-width:0.7155;stroke-linecap:round;stroke-linejoin:round;stroke-miterlimit:10;" d="
						M225.221,192.463c0,0,1.144,1.533,3.638,1.274"/>
					<path style="fill:#312220;" d="M230.173,179.43c-0.567,0.097-1.112,0.092-1.635,0.103c-0.513,0.006-1.052-0.026-1.486-0.005
						c-0.895,0.052-1.943,0.374-3.017,0.587l-0.024,0.005c-0.206,0.041-0.407-0.089-0.45-0.29c-0.026-0.125,0.017-0.25,0.101-0.335
						c0.431-0.428,0.911-0.749,1.444-1.027c0.533-0.269,1.114-0.481,1.782-0.569c0.676-0.068,1.253-0.022,1.844,0.115
						c0.58,0.149,1.132,0.348,1.641,0.725c0.174,0.129,0.208,0.37,0.077,0.54c-0.062,0.08-0.151,0.13-0.245,0.146L230.173,179.43z"
						/>
				</g>
			</g>
			<g>
				<g>
					<g>
						<polygon style="fill:#DFB590;" points="159.665,419.818 170.543,394.555 155.007,393.759 144.121,420.076 155.433,421.511 
													"/>
						<g>
							<path style="fill:#312220;" d="M143.027,415.736c0,0,14.12,5.384,20.003-3.276l24.492,15.015h-49.764L143.027,415.736z"/>
							<rect x="137.758" y="427.475" style="fill:#FFFFFF;" width="49.764" height="4.7"/>
						</g>
					</g>
					<path style="fill:#5774E1;" d="M157.031,283.892l10.39,63.968l-28.217,57.867l36.209,1.456l23.116-45.901
						c2.946-4.517,5.551-14.198,4.676-21.774l-1.525-40.609L157.031,283.892z"/>
				</g>
				<g>
					<g>
						<polygon style="fill:#DFB590;" points="218.505,419.818 227.499,394.555 211.963,393.759 202.962,421.511 215.709,421.511 
													"/>
						<g>
							<path style="fill:#312220;" d="M203.303,415.736c0,0,12.685,5.384,18.568-3.276l25.928,15.015H199.47L203.303,415.736z"/>
							<rect x="199.47" y="427.475" style="fill:#FFFFFF;" width="48.328" height="4.7"/>
						</g>
					</g>
					<path style="fill:#6E85F6;" d="M210.256,276.19l40.604,57.381c4.422,5.604,5.614,13.104,3.148,19.803l-19.688,56.361
						l-34.568-1.977l18.786-59.209l-45.419-42.188c0,0-22.494-14.155-15.112-36.539L210.256,276.19z"/>
				</g>
			</g>
			<g>
				<path style="fill:#EAADC7;" d="M221.276,223.861c0,0,3.201-9.513-15.55-13.201c-18.752-3.687-22.746,11.369-26.434,18.744
					c-3.687,7.375-21.286,40.42-21.286,40.42l52.249,6.366L221.276,223.861z"/>
				<g>
					<g>
						<path style="fill:#EAADC7;" d="M210.085,213.2c7.712-0.198,13.964,6.205,13.58,13.91l0.412,36.64
							c-0.502,12.531-1.425,21.269-14.824,20.621l0,0c-5.864-0.284-10.606-4.874-11.08-10.726l-1-46.913
							C197.018,219.437,202.79,213.388,210.085,213.2L210.085,213.2z"/>
						
							<line style="fill:none;stroke:#312220;stroke-width:0.7155;stroke-linecap:round;stroke-linejoin:round;stroke-miterlimit:10;" x1="196.12" y1="241.469" x2="198.191" y2="274.33"/>
					</g>
					<g>
						<g>
							<path style="fill:#DFB590;" d="M265.659,245.687c0,0-2.183-4.899-7.128-1.205c-4.945,3.694-9.29,11.199-2.221,20.692
								L265.659,245.687z"/>
							<g>
								
									<ellipse transform="matrix(0.7071 -0.7071 0.7071 0.7071 -86.595 277.2192)" style="fill:#76C8A8;" cx="291.336" cy="243.139" rx="28.916" ry="28.916"/>
							</g>
							<path style="fill:#DFB590;" d="M272.908,266.29c-4.892,4.275-12.323,3.776-16.598-1.116
								c-4.275-4.891-3.776-12.323,1.116-16.598c4.892-4.275,12.323-3.776,16.598,1.116
								C278.299,254.583,277.8,262.014,272.908,266.29z"/>
							<path style="fill:#FFFFFF;" d="M298.517,238.146c-1.667-1.632-4.336-1.604-5.966,0.063l-1.075,1.097l-1.106-1.089
								c-1.66-1.636-4.331-1.614-5.967,0.045c-1.634,1.661-1.615,4.332,0.047,5.967l4.104,4.042
								c0.009,0.009,0.014,0.019,0.023,0.027c0.655,0.642,1.465,1.026,2.307,1.155c1.298,0.2,2.67-0.208,3.659-1.218l4.037-4.123
								C300.21,242.448,300.182,239.777,298.517,238.146z"/>
						</g>
						<path style="fill:#EAADC7;" d="M252.292,250.118l-47.494,11.373c-5.287,2.606-7.97,11.066-5.624,16.474l0,0
							c2.584,5.955,8.964,8.017,15.75,6.135l45.407-13.324L252.292,250.118z"/>
					</g>
				</g>
			</g>
		</g>
		
			<line style="fill:none;stroke:#312220;stroke-width:1.0014;stroke-linecap:round;stroke-linejoin:round;stroke-miterlimit:10;" x1="60.859" y1="433.177" x2="674.161" y2="433.177"/>
	</g>
</g>
<g id="DESIGNED_BY_FREEPIK">
	<g>
		<g id="XMLID_29_">
			<g id="XMLID_48_">
				<path id="XMLID_56_" style="fill:#1C1C1B;" d="M385.084,465.471c-0.432,0.443-0.803,0.931-1.108,1.453l-0.465-0.241
					c-0.067-0.298-0.349-0.503-0.659-0.466c-0.331,0.039-0.568,0.339-0.529,0.67c0.039,0.331,0.339,0.568,0.67,0.529
					c0.065-0.008,0.127-0.026,0.184-0.052l0.452,0.234c-0.251,0.554-0.433,1.139-0.539,1.744l0.746,0.132
					c0.23-1.306,0.85-2.507,1.792-3.472L385.084,465.471z"/>
				<path id="XMLID_55_" style="fill:#1C1C1B;" d="M390.572,463.169c-0.171,0-0.341,0.006-0.51,0.017l-0.074-0.626
					c0.188-0.149,0.296-0.389,0.266-0.645c-0.046-0.393-0.402-0.674-0.795-0.628s-0.674,0.402-0.628,0.795
					c0.03,0.254,0.189,0.461,0.405,0.564l0.073,0.624c-0.714,0.116-1.403,0.332-2.06,0.646l0.327,0.684
					c0.934-0.447,1.942-0.673,2.995-0.673c0.496,0,0.993,0.053,1.475,0.158l0.161-0.741
					C391.672,463.228,391.122,463.169,390.572,463.169z"/>
				<path id="XMLID_54_" style="fill:#1C1C1B;" d="M397.174,465.716c0.331-0.04,0.566-0.341,0.525-0.672
					c-0.04-0.331-0.341-0.566-0.672-0.526c-0.309,0.038-0.535,0.304-0.53,0.609l-0.416,0.363c-0.418-0.43-0.89-0.813-1.408-1.139
					l-0.404,0.641c1.134,0.715,2.021,1.726,2.563,2.925l0.69-0.313c-0.251-0.554-0.567-1.072-0.942-1.545l0.402-0.351
					C397.045,465.721,397.109,465.724,397.174,465.716z"/>
				<path id="XMLID_53_" style="fill:#1C1C1B;" d="M390.024,473.377c-0.386,0.023-0.775,0.035-1.157,0.035
					c-0.88,0-1.733-0.061-2.478-0.179c-0.39-0.062-0.846-0.155-1.27-0.292c1.046,1.861,3.069,3.125,5.388,3.125
					c2.855,0,5.262-1.916,5.95-4.504c-0.682,0.449-1.505,0.825-2.459,1.123C392.818,473.052,391.443,473.292,390.024,473.377z"/>
				<path id="XMLID_49_" style="fill:#1C1C1B;" d="M390.572,464.685c-3.352,0-6.08,2.666-6.08,5.944
					c0,0.425,0.046,0.849,0.137,1.261c0.673,0.483,2.706,0.89,5.348,0.731c2.879-0.173,5.297-0.957,6.672-2.158
					c-0.005-0.195-0.021-0.39-0.045-0.582C396.223,466.919,393.63,464.685,390.572,464.685z M388.412,471.2
					c-1.02,0-1.85-0.83-1.85-1.85c0-1.02,0.83-1.85,1.85-1.85c1.02,0,1.85,0.83,1.85,1.85
					C390.262,470.37,389.432,471.2,388.412,471.2z M393.15,470.292c-0.75,0-1.36-0.61-1.36-1.36s0.61-1.361,1.36-1.361
					c0.75,0,1.361,0.61,1.361,1.361S393.9,470.292,393.15,470.292z"/>
			</g>
			<path id="XMLID_46_" style="fill:#1C1C1B;" d="M406.575,466.552c-0.295-0.116-0.806-0.309-1.382-0.237
				c-0.551,0.068-0.844,0.34-0.844,1.007v0.866h2.228v1.717h-2.228v5.455h-1.932v-5.455h-1.34v-1.717h1.34v-0.888
				c0-1.68,0.896-2.783,2.568-2.783c0.643,0,1.157,0.122,1.59,0.308L406.575,466.552z"/>
			<path id="XMLID_44_" style="fill:#1C1C1B;" d="M411.278,469.884c-0.177-0.03-0.358-0.046-0.526-0.046
				c-0.896,0-1.51,0.548-1.51,1.613v3.908h-1.932v-7.172h1.873v0.785c0.451-0.673,1.14-0.977,2.021-0.977
				c0.414,0,0.848,0.128,1.094,0.337L411.278,469.884z"/>
			<path id="XMLID_41_" style="fill:#1C1C1B;" d="M418.945,471.762c0,0.222-0.015,0.489-0.037,0.651h-5.085
				c0.207,1.036,0.933,1.488,1.843,1.488c0.622,0,1.295-0.252,1.813-0.688l1.133,1.243c-0.814,0.748-1.85,1.088-3.057,1.088
				c-2.198,0-3.723-1.495-3.723-3.753c0-2.258,1.48-3.797,3.626-3.797C417.524,467.995,418.937,469.527,418.945,471.762z
				 M413.83,471.096h3.175c-0.177-0.918-0.733-1.436-1.562-1.436C414.534,469.66,414.001,470.208,413.83,471.096z"/>
			<path id="XMLID_38_" style="fill:#1C1C1B;" d="M426.598,471.762c0,0.222-0.015,0.489-0.037,0.651h-5.085
				c0.207,1.036,0.932,1.488,1.843,1.488c0.622,0,1.295-0.252,1.813-0.688l1.132,1.243c-0.814,0.748-1.85,1.088-3.057,1.088
				c-2.198,0-3.723-1.495-3.723-3.753c0-2.258,1.48-3.797,3.627-3.797C425.177,467.995,426.591,469.527,426.598,471.762z
				 M421.484,471.096h3.175c-0.178-0.918-0.733-1.436-1.562-1.436C422.187,469.66,421.654,470.208,421.484,471.096z"/>
			<path id="XMLID_35_" style="fill:#1C1C1B;" d="M434.944,471.77c0,2.154-1.495,3.775-3.471,3.775
				c-0.962,0-1.643-0.378-2.109-0.933v3.708h-1.924v-10.133h1.887v0.792c0.466-0.585,1.155-0.984,2.139-0.984
				C433.449,467.995,434.944,469.616,434.944,471.77z M429.267,471.77c0,1.132,0.748,1.976,1.843,1.976
				c1.14,0,1.85-0.881,1.85-1.976c0-1.095-0.71-1.976-1.85-1.976C430.014,469.794,429.267,470.637,429.267,471.77z"/>
			<path id="XMLID_32_" style="fill:#1C1C1B;" d="M438.047,465.841c0,0.696-0.54,1.229-1.236,1.229
				c-0.696,0-1.229-0.533-1.229-1.229c0-0.696,0.533-1.243,1.229-1.243C437.507,464.598,438.047,465.146,438.047,465.841z
				 M437.788,475.359h-1.932v-7.172h1.932V475.359z"/>
			<path id="XMLID_30_" style="fill:#1C1C1B;" d="M441.012,470.741l2.701-2.554h2.368l-3.479,3.375l3.501,3.797h-2.376l-2.716-2.901
				v2.901h-1.932v-10.658h1.932V470.741z"/>
		</g>
		<g>
			<path style="fill:#1C1C1B;" d="M309.392,475.294v-1.055c-0.527,0.718-1.391,1.231-2.388,1.231c-1.846,0-3.149-1.406-3.149-3.706
				c0-2.256,1.289-3.721,3.149-3.721c0.952,0,1.816,0.469,2.388,1.245v-3.765h1.099v9.77H309.392z M309.392,473.376v-3.208
				c-0.395-0.615-1.245-1.143-2.124-1.143c-1.421,0-2.27,1.172-2.27,2.739c0,1.567,0.85,2.724,2.27,2.724
				C308.147,474.489,308.997,473.991,309.392,473.376z"/>
			<path style="fill:#1C1C1B;" d="M311.912,471.75c0-2.051,1.465-3.706,3.486-3.706c2.139,0,3.398,1.67,3.398,3.794v0.279h-5.727
				c0.088,1.333,1.025,2.446,2.549,2.446c0.806,0,1.626-0.322,2.182-0.893l0.527,0.718c-0.703,0.703-1.655,1.084-2.812,1.084
				C313.42,475.47,311.912,473.962,311.912,471.75z M315.383,468.952c-1.509,0-2.256,1.274-2.314,2.358h4.643
				C317.697,470.255,316.994,468.952,315.383,468.952z"/>
			<path style="fill:#1C1C1B;" d="M319.587,474.357l0.571-0.791c0.469,0.542,1.362,1.011,2.329,1.011c1.084,0,1.67-0.513,1.67-1.216
				c0-1.714-4.38-0.659-4.38-3.281c0-1.098,0.952-2.036,2.636-2.036c1.201,0,2.051,0.454,2.622,1.026l-0.513,0.762
				c-0.424-0.513-1.201-0.894-2.109-0.894c-0.967,0-1.567,0.483-1.567,1.113c0,1.552,4.38,0.527,4.38,3.281
				c0,1.187-0.952,2.139-2.783,2.139C321.286,475.47,320.304,475.119,319.587,474.357z"/>
			<path style="fill:#1C1C1B;" d="M326.457,466.477c0-0.41,0.337-0.747,0.732-0.747c0.41,0,0.747,0.337,0.747,0.747
				c0,0.41-0.337,0.732-0.747,0.732C326.794,467.209,326.457,466.887,326.457,466.477z M326.647,475.294v-7.075h1.099v7.075H326.647
				z"/>
			<path style="fill:#1C1C1B;" d="M329.562,477.111l0.556-0.82c0.586,0.703,1.289,0.967,2.3,0.967c1.172,0,2.27-0.571,2.27-2.124
				v-1.011c-0.513,0.718-1.377,1.26-2.373,1.26c-1.845,0-3.149-1.377-3.149-3.662c0-2.27,1.289-3.677,3.149-3.677
				c0.952,0,1.802,0.469,2.373,1.245v-1.069h1.099v6.87c0,2.344-1.641,3.076-3.369,3.076
				C331.217,478.165,330.396,477.931,329.562,477.111z M334.688,473.259v-3.091c-0.381-0.615-1.23-1.143-2.109-1.143
				c-1.421,0-2.27,1.128-2.27,2.695c0,1.553,0.849,2.695,2.27,2.695C333.458,474.416,334.307,473.874,334.688,473.259z"/>
			<path style="fill:#1C1C1B;" d="M342.393,475.294v-4.629c0-1.245-0.63-1.641-1.582-1.641c-0.865,0-1.685,0.527-2.095,1.099v5.17
				h-1.099v-7.075h1.099v1.025c0.498-0.586,1.465-1.201,2.519-1.201c1.48,0,2.256,0.747,2.256,2.285v4.966H342.393z"/>
			<path style="fill:#1C1C1B;" d="M344.912,471.75c0-2.051,1.465-3.706,3.486-3.706c2.138,0,3.398,1.67,3.398,3.794v0.279h-5.727
				c0.088,1.333,1.025,2.446,2.549,2.446c0.806,0,1.626-0.322,2.183-0.893l0.527,0.718c-0.703,0.703-1.655,1.084-2.812,1.084
				C346.421,475.47,344.912,473.962,344.912,471.75z M348.384,468.952c-1.509,0-2.256,1.274-2.314,2.358h4.643
				C350.698,470.255,349.995,468.952,348.384,468.952z"/>
			<path style="fill:#1C1C1B;" d="M358.33,475.294v-1.055c-0.527,0.718-1.391,1.231-2.388,1.231c-1.846,0-3.149-1.406-3.149-3.706
				c0-2.256,1.289-3.721,3.149-3.721c0.952,0,1.817,0.469,2.388,1.245v-3.765h1.099v9.77H358.33z M358.33,473.376v-3.208
				c-0.396-0.615-1.245-1.143-2.124-1.143c-1.421,0-2.27,1.172-2.27,2.739c0,1.567,0.849,2.724,2.27,2.724
				C357.085,474.489,357.934,473.991,358.33,473.376z"/>
			<path style="fill:#1C1C1B;" d="M364.672,475.294v-9.77h1.099v3.765c0.572-0.776,1.421-1.245,2.388-1.245
				c1.845,0,3.149,1.465,3.149,3.721c0,2.299-1.304,3.706-3.149,3.706c-0.996,0-1.86-0.513-2.388-1.231v1.055H364.672z
				 M367.879,474.489c1.436,0,2.286-1.157,2.286-2.724c0-1.568-0.85-2.739-2.286-2.739c-0.864,0-1.728,0.527-2.109,1.143v3.208
				C366.151,473.991,367.015,474.489,367.879,474.489z"/>
			<path style="fill:#1C1C1B;" d="M372.508,477.067c0.161,0.073,0.425,0.117,0.601,0.117c0.483,0,0.806-0.161,1.055-0.747
				l0.469-1.069l-2.959-7.148h1.187l2.358,5.801l2.344-5.801h1.201l-3.545,8.51c-0.425,1.025-1.143,1.421-2.08,1.435
				c-0.234,0-0.601-0.044-0.806-0.103L372.508,477.067z"/>
		</g>
	</g>
</g>
</svg>
